<svg style="display: none;" aria-hidden="true" xmlns="http://www.w3.org/2000/svg" xmlns:xlink="http://www.w3.org/1999/xlink"><symbol viewBox="0 0 24 24" id="svg-Arrow_Bottom"><path fill-rule="evenodd" clip-rule="evenodd" d="M19.7071 8.79289C19.3166 8.40237 18.6834 8.40237 18.2929 8.79289L12 15.0858L5.70711 8.79289C5.31658 8.40237 4.68342 8.40237 4.29289 8.79289C3.90237 9.18342 3.90237 9.81658 4.29289 10.2071L11.2929 17.2071C11.6834 17.5976 12.3166 17.5976 12.7071 17.2071L19.7071 10.2071C20.0976 9.81658 20.0976 9.18342 19.7071 8.79289Z"/></symbol><symbol viewBox="0 0 24 24" id="svg-Arrow_Left"><path fill-rule="evenodd" clip-rule="evenodd" d="M15.7071 4.29289C16.0976 4.68342 16.0976 5.31658 15.7071 5.70711L9.41421 12L15.7071 18.2929C16.0976 18.6834 16.0976 19.3166 15.7071 19.7071C15.3166 20.0976 14.6834 20.0976 14.2929 19.7071L7.29289 12.7071C6.90237 12.3166 6.90237 11.6834 7.29289 11.2929L14.2929 4.29289C14.6834 3.90237 15.3166 3.90237 15.7071 4.29289Z"/></symbol><symbol viewBox="0 0 24 24" id="svg-Arrow_Right"><path fill-rule="evenodd" clip-rule="evenodd" d="M8.29289 4.29289C7.90237 4.68342 7.90237 5.31658 8.29289 5.70711L14.5858 12L8.2929 18.2929C7.90237 18.6834 7.90237 19.3166 8.2929 19.7071C8.68342 20.0976 9.31659 20.0976 9.70711 19.7071L16.7071 12.7071C17.0976 12.3166 17.0976 11.6834 16.7071 11.2929L9.70711 4.29289C9.31658 3.90237 8.68342 3.90237 8.29289 4.29289Z"/></symbol><symbol viewBox="0 0 24 24" id="svg-Arrow_Slide_Left"><path fill-rule="evenodd" clip-rule="evenodd" d="M4 12C4 11.4477 4.44772 11 5 11L19 11C19.5523 11 20 11.4477 20 12C20 12.5523 19.5523 13 19 13L5 13C4.44772 13 4 12.5523 4 12Z"/><path fill-rule="evenodd" clip-rule="evenodd" d="M12.7071 4.29289C13.0976 4.68342 13.0976 5.31658 12.7071 5.70711L6.41421 12L12.7071 18.2929C13.0976 18.6834 13.0976 19.3166 12.7071 19.7071C12.3166 20.0976 11.6834 20.0976 11.2929 19.7071L4.29289 12.7071C3.90237 12.3166 3.90237 11.6834 4.29289 11.2929L11.2929 4.29289C11.6834 3.90237 12.3166 3.90237 12.7071 4.29289Z"/></symbol><symbol viewBox="0 0 24 24" id="svg-Arrow_Slide_Right"><path fill-rule="evenodd" clip-rule="evenodd" d="M20 12C20 12.5523 19.5523 13 19 13L5 13C4.44771 13 4 12.5523 4 12C4 11.4477 4.44771 11 5 11L19 11C19.5523 11 20 11.4477 20 12Z"/><path fill-rule="evenodd" clip-rule="evenodd" d="M11.2929 19.7071C10.9024 19.3166 10.9024 18.6834 11.2929 18.2929L17.5858 12L11.2929 5.70711C10.9024 5.31658 10.9024 4.68342 11.2929 4.29289C11.6834 3.90237 12.3166 3.90237 12.7071 4.29289L19.7071 11.2929C20.0976 11.6834 20.0976 12.3166 19.7071 12.7071L12.7071 19.7071C12.3166 20.0976 11.6834 20.0976 11.2929 19.7071Z"/></symbol><symbol viewBox="0 0 24 24" id="svg-Arrow_Top"><path fill-rule="evenodd" clip-rule="evenodd" d="M19.7071 15.2071C19.3166 15.5976 18.6834 15.5976 18.2929 15.2071L12 8.91421L5.70711 15.2071C5.31658 15.5976 4.68342 15.5976 4.29289 15.2071C3.90237 14.8166 3.90237 14.1834 4.29289 13.7929L11.2929 6.79289C11.6834 6.40237 12.3166 6.40237 12.7071 6.79289L19.7071 13.7929C20.0976 14.1834 20.0976 14.8166 19.7071 15.2071Z"/></symbol><symbol viewBox="0 0 24 24" id="svg-Arrow_Up_Right"><path fill-rule="evenodd" clip-rule="evenodd" d="M17.6365 6.3637C17.988 6.71517 17.988 7.28502 17.6365 7.63649L7.63649 17.6365C7.28502 17.988 6.71517 17.988 6.3637 17.6365C6.01223 17.285 6.01223 16.7152 6.3637 16.3637L16.3637 6.3637C16.7152 6.01223 17.285 6.01223 17.6365 6.3637Z"/><path fill-rule="evenodd" clip-rule="evenodd" d="M6.1001 7.0001C6.1001 6.50304 6.50304 6.1001 7.0001 6.1001H17.0001C17.4972 6.1001 17.9001 6.50304 17.9001 7.0001V17.0001C17.9001 17.4972 17.4972 17.9001 17.0001 17.9001C16.503 17.9001 16.1001 17.4972 16.1001 17.0001V7.9001H7.0001C6.50304 7.9001 6.1001 7.49715 6.1001 7.0001Z"/></symbol><symbol viewBox="0 0 24 24" id="svg-Attach"><path fill-rule="evenodd" clip-rule="evenodd" d="M17.9822 4.97466C16.5406 3.53304 14.2032 3.53306 12.7615 4.9747L4.93757 12.7987L3.80619 11.6673L11.6302 3.84333C13.6966 1.77685 17.0471 1.77683 19.1136 3.84328C21.1801 5.90975 21.1801 9.2602 19.1137 11.3267L9.85191 20.5887C8.36138 22.0793 5.94471 22.0793 4.45422 20.5887C2.96381 19.0982 2.96383 16.6817 4.45426 15.1913L13.5215 6.12377C14.4529 5.19234 15.963 5.19237 16.8944 6.12385C17.8257 7.05524 17.8256 8.5652 16.8943 9.49653L8.76495 17.6259L7.63358 16.4945L15.7629 8.36516C16.0694 8.05864 16.0695 7.56169 15.763 7.25515C15.4564 6.94858 14.9594 6.94857 14.6529 7.25512L5.58565 16.3226C4.72003 17.1882 4.72002 18.5917 5.58562 19.4574C6.45128 20.3231 7.85485 20.3231 8.72052 19.4574L17.9823 10.1954C19.4239 8.75369 19.4239 6.4163 17.9822 4.97466Z"/></symbol><symbol viewBox="0 0 24 24" id="svg-Check_Mark"><path fill-rule="evenodd" clip-rule="evenodd" d="M20.7071 6.29289C21.0976 6.68342 21.0976 7.31658 20.7071 7.70711L9.70711 18.7071C9.31658 19.0976 8.68342 19.0976 8.29289 18.7071L3.29289 13.7071C2.90237 13.3166 2.90237 12.6834 3.29289 12.2929C3.68342 11.9024 4.31658 11.9024 4.70711 12.2929L9 16.5858L19.2929 6.29289C19.6834 5.90237 20.3166 5.90237 20.7071 6.29289Z"/></symbol><symbol viewBox="0 0 24 24" id="svg-Close"><path fill-rule="evenodd" clip-rule="evenodd" d="M5.29289 5.29289C5.68342 4.90237 6.31658 4.90237 6.70711 5.29289L12 10.5858L17.2929 5.29289C17.6834 4.90237 18.3166 4.90237 18.7071 5.29289C19.0976 5.68342 19.0976 6.31658 18.7071 6.70711L13.4142 12L18.7071 17.2929C19.0976 17.6834 19.0976 18.3166 18.7071 18.7071C18.3166 19.0976 17.6834 19.0976 17.2929 18.7071L12 13.4142L6.70711 18.7071C6.31658 19.0976 5.68342 19.0976 5.29289 18.7071C4.90237 18.3166 4.90237 17.6834 5.29289 17.2929L10.5858 12L5.29289 6.70711C4.90237 6.31658 4.90237 5.68342 5.29289 5.29289Z"/></symbol><symbol viewBox="0 0 24 24" id="svg-Download"><path fill-rule="evenodd" clip-rule="evenodd" d="M20.9999 19.9998C21.5522 19.9998 21.9999 20.4475 22 20.9997C22.0001 21.552 21.5524 21.9998 21.0001 21.9998L3 22C2.44772 22 2 21.5523 2 21C2 20.4477 2.44772 20 3 20L20.9999 19.9998Z"/><path d="M7.70726 9.29289C7.31673 8.90237 6.68357 8.90237 6.29304 9.29289C5.90252 9.68342 5.90252 10.3166 6.29304 10.7071L11.293 15.7071C11.6836 16.0976 12.3167 16.0976 12.7073 15.7071L17.7073 10.7071C18.0978 10.3166 18.0978 9.68342 17.7073 9.29289C17.3167 8.90237 16.6836 8.90237 16.293 9.29289L13.0002 12.5858V3C13.0002 2.44772 12.5524 2 12.0002 2C11.4479 2 11.0002 2.44772 11.0002 3V12.5858L7.70726 9.29289Z"/></symbol><symbol viewBox="0 0 24 24" id="svg-Eye"><path fill-rule="evenodd" clip-rule="evenodd" d="M9.38071 12.0001C9.38071 13.4439 10.5535 14.6167 11.9973 14.6167C13.4411 14.6167 14.614 13.4439 14.614 12.0001V11.9784C14.3346 12.2618 13.9513 12.4363 13.5236 12.4363C12.6818 12.4363 11.9973 11.7516 11.9973 10.9099C11.9973 10.3039 12.3546 9.776 12.8652 9.53172C12.5949 9.43587 12.3027 9.38355 11.9973 9.38355C10.5535 9.3835 9.38071 10.5565 9.38071 12.0001ZM21.8795 10.5129C20.2569 8.45033 16.3061 5.02246 12.0016 5.02246C7.69298 5.02246 3.73778 8.45038 2.11514 10.5129C1.7489 10.984 1.54831 11.4942 1.53516 12.0001C1.54836 12.5061 1.7489 13.0163 2.11514 13.4873C3.73783 15.5503 7.68866 18.9777 11.9973 18.9777C16.306 18.9777 20.2569 15.5503 21.8795 13.4873C22.2499 13.0163 22.4506 12.5061 22.4638 12.0001C22.4506 11.4942 22.2499 10.984 21.8795 10.5129ZM11.9973 16.3611C9.59028 16.3611 7.63629 14.4073 7.63629 12.0001C7.63629 9.59288 9.59028 7.63908 11.9973 7.63908C14.4043 7.63908 16.3583 9.59288 16.3583 12.0001C16.3583 14.4073 14.4043 16.3611 11.9973 16.3611Z"/></symbol><symbol viewBox="0 0 24 24" id="svg-Help"><path d="M11 18H13V16H11V18ZM12 2C10.6868 2 9.38642 2.25866 8.17317 2.7612C6.95991 3.26375 5.85752 4.00035 4.92893 4.92893C3.05357 6.8043 2 9.34784 2 12C2 14.6522 3.05357 17.1957 4.92893 19.0711C5.85752 19.9997 6.95991 20.7362 8.17317 21.2388C9.38642 21.7413 10.6868 22 12 22C14.6522 22 17.1957 20.9464 19.0711 19.0711C20.9464 17.1957 22 14.6522 22 12C22 10.6868 21.7413 9.38642 21.2388 8.17317C20.7362 6.95991 19.9997 5.85752 19.0711 4.92893C18.1425 4.00035 17.0401 3.26375 15.8268 2.7612C14.6136 2.25866 13.3132 2 12 2ZM12 20C7.59 20 4 16.41 4 12C4 7.59 7.59 4 12 4C16.41 4 20 7.59 20 12C20 16.41 16.41 20 12 20ZM12 6C10.9391 6 9.92172 6.42143 9.17157 7.17157C8.42143 7.92172 8 8.93913 8 10H10C10 9.46957 10.2107 8.96086 10.5858 8.58579C10.9609 8.21071 11.4696 8 12 8C12.5304 8 13.0391 8.21071 13.4142 8.58579C13.7893 8.96086 14 9.46957 14 10C14 12 11 11.75 11 15H13C13 12.75 16 12.5 16 10C16 8.93913 15.5786 7.92172 14.8284 7.17157C14.0783 6.42143 13.0609 6 12 6Z"/></symbol><symbol viewBox="0 0 24 24" id="svg-Info"><path d="M11 9H13V7H11V9ZM12 20C7.59 20 4 16.41 4 12C4 7.59 7.59 4 12 4C16.41 4 20 7.59 20 12C20 16.41 16.41 20 12 20ZM12 2C10.6868 2 9.38642 2.25866 8.17317 2.7612C6.95991 3.26375 5.85752 4.00035 4.92893 4.92893C3.05357 6.8043 2 9.34784 2 12C2 14.6522 3.05357 17.1957 4.92893 19.0711C5.85752 19.9997 6.95991 20.7362 8.17317 21.2388C9.38642 21.7413 10.6868 22 12 22C14.6522 22 17.1957 20.9464 19.0711 19.0711C20.9464 17.1957 22 14.6522 22 12C22 10.6868 21.7413 9.38642 21.2388 8.17317C20.7362 6.95991 19.9997 5.85752 19.0711 4.92893C18.1425 4.00035 17.0401 3.26375 15.8268 2.7612C14.6136 2.25866 13.3132 2 12 2ZM11 17H13V11H11V17Z"/></symbol><symbol viewBox="0 0 24 24" id="svg-Location"><path d="M12 2C8.135 2 5 5.135 5 9C5 14.25 12 22 12 22C12 22 19 14.25 19 9C19 5.135 15.865 2 12 2ZM12 11.5C10.62 11.5 9.5 10.38 9.5 9C9.5 7.62 10.62 6.5 12 6.5C13.38 6.5 14.5 7.62 14.5 9C14.5 10.38 13.38 11.5 12 11.5Z"/></symbol><symbol viewBox="0 0 24 24" id="svg-Menu"><path d="M3 6H21V8H3V6ZM3 11H21V13H3V11ZM3 16H21V18H3V16Z"/></symbol><symbol viewBox="0 0 24 24" id="svg-PDF"><path fill-rule="evenodd" clip-rule="evenodd" d="M12.6186 1.87988C13.1287 1.87988 13.6178 2.08217 13.9784 2.44224L18.6212 7.07753C18.9818 7.4376 19.1844 7.92596 19.1844 8.43517V13.3999H17.2613L17.2613 8.59988H12.4537V3.79988H5.72288V19.1599H11.4921L13.4152 21.0799H5.72288C4.6608 21.0799 3.7998 20.2203 3.7998 19.1599V3.79988C3.7998 2.7395 4.6608 1.87988 5.72288 1.87988H12.6186ZM16.2998 21.0799L14.3767 19.1599H17.2613V15.3199H19.1844V19.1599H22.069L18.2229 22.9999L16.2998 21.0799ZM13.6281 13.6323C14.6172 13.6704 15.6974 13.9961 15.223 15.0029C14.729 16.0513 13.7379 15.7045 12.994 15.0869C12.5971 14.7574 12.0823 14.5565 11.58 14.6754C11.1413 14.7791 10.795 15.1056 10.5797 15.5011C9.94092 16.6748 8.70635 17.8772 7.89628 16.8524C7.17538 15.9404 8.13544 15.0687 9.20445 14.6014C9.8405 14.3233 10.4342 13.8891 10.7012 13.2491C10.938 12.6814 10.8841 12.0415 10.6604 11.4685C10.1862 10.2539 9.99134 8.76245 11.2376 8.61004C12.5953 8.444 12.4809 10.3493 12.1149 11.7296C12.0096 12.1266 12.0459 12.5535 12.259 12.9048C12.5426 13.372 13.0813 13.6113 13.6281 13.6323Z"/></symbol><symbol viewBox="0 0 24 24" id="svg-Plus"><path fill-rule="evenodd" clip-rule="evenodd" d="M12 4C12.5523 4 13 4.44772 13 5V19C13 19.5523 12.5523 20 12 20C11.4477 20 11 19.5523 11 19V5C11 4.44772 11.4477 4 12 4Z"/><path fill-rule="evenodd" clip-rule="evenodd" d="M4 12C4 11.4477 4.44772 11 5 11H19C19.5523 11 20 11.4477 20 12C20 12.5523 19.5523 13 19 13H5C4.44772 13 4 12.5523 4 12Z"/></symbol><symbol viewBox="0 0 24 24" id="svg-Search"><path d="M21.7104 20.2899L18.0004 16.6099C19.4405 14.8143 20.1379 12.5352 19.9492 10.2412C19.7605 7.94721 18.7001 5.81269 16.9859 4.27655C15.2718 2.74041 13.0342 1.91941 10.7333 1.98237C8.43243 2.04534 6.24311 2.98747 4.61553 4.61505C2.98795 6.24263 2.04582 8.43194 1.98286 10.7328C1.9199 13.0337 2.7409 15.2713 4.27704 16.9854C5.81318 18.6996 7.94769 19.76 10.2417 19.9487C12.5357 20.1374 14.8148 19.44 16.6104 17.9999L20.2904 21.6799C20.3834 21.7736 20.494 21.848 20.6158 21.8988C20.7377 21.9496 20.8684 21.9757 21.0004 21.9757C21.1324 21.9757 21.2631 21.9496 21.385 21.8988C21.5068 21.848 21.6174 21.7736 21.7104 21.6799C21.8906 21.4934 21.9914 21.2442 21.9914 20.9849C21.9914 20.7256 21.8906 20.4764 21.7104 20.2899V20.2899ZM11.0004 17.9999C9.61592 17.9999 8.26255 17.5894 7.1114 16.8202C5.96026 16.051 5.06305 14.9578 4.53324 13.6787C4.00342 12.3996 3.8648 10.9921 4.1349 9.63427C4.40499 8.27641 5.07168 7.02912 6.05065 6.05016C7.02961 5.07119 8.27689 4.4045 9.63476 4.13441C10.9926 3.86431 12.4001 4.00293 13.6792 4.53275C14.9583 5.06256 16.0515 5.95977 16.8207 7.11091C17.5899 8.26206 18.0004 9.61544 18.0004 10.9999C18.0004 12.8564 17.2629 14.6369 15.9501 15.9497C14.6374 17.2624 12.8569 17.9999 11.0004 17.9999V17.9999Z"/></symbol><symbol viewBox="0 0 24 24" id="svg-Success"><path fill-rule="evenodd" clip-rule="evenodd" d="M12 2C6.5 2 2 6.5 2 12C2 17.5 6.5 22 12 22C17.5 22 22 17.5 22 12C22 6.5 17.5 2 12 2ZM5 12L10 17L18.5 8.5L17.09 7.08L10 14.17L6.41 10.59L5 12Z"/></symbol><symbol viewBox="0 0 24 24" id="svg-Warning"><path d="M11 15H13V17H11V15ZM11 7H13V13H11V7ZM12 2C6.47 2 2 6.5 2 12C2 14.6522 3.05357 17.1957 4.92893 19.0711C5.85752 19.9997 6.95991 20.7362 8.17317 21.2388C9.38642 21.7413 10.6868 22 12 22C14.6522 22 17.1957 20.9464 19.0711 19.0711C20.9464 17.1957 22 14.6522 22 12C22 10.6868 21.7413 9.38642 21.2388 8.17317C20.7362 6.95991 19.9997 5.85752 19.0711 4.92893C18.1425 4.00035 17.0401 3.26375 15.8268 2.7612C14.6136 2.25866 13.3132 2 12 2ZM12 20C9.87827 20 7.84344 19.1571 6.34315 17.6569C4.84285 16.1566 4 14.1217 4 12C4 9.87827 4.84285 7.84344 6.34315 6.34315C7.84344 4.84285 9.87827 4 12 4C14.1217 4 16.1566 4.84285 17.6569 6.34315C19.1571 7.84344 20 9.87827 20 12C20 14.1217 19.1571 16.1566 17.6569 17.6569C16.1566 19.1571 14.1217 20 12 20Z"/></symbol><symbol viewBox="0 0 88 88" id="svg-calendar"><path d="M69.6667 73.3335H18.3333V33.0002H69.6667V73.3335ZM58.6667 7.3335V14.6668H29.3333V7.3335H22V14.6668H18.3333C14.2633 14.6668 11 17.9302 11 22.0002V73.3335C11 75.2784 11.7726 77.1437 13.1479 78.5189C14.5231 79.8942 16.3884 80.6668 18.3333 80.6668H69.6667C71.6116 80.6668 73.4768 79.8942 74.8521 78.5189C76.2274 77.1437 77 75.2784 77 73.3335V22.0002C77 17.9302 73.7 14.6668 69.6667 14.6668H66V7.3335H58.6667ZM62.3333 47.6668H44V66.0002H62.3333V47.6668Z" opacity=".2"/></symbol><symbol viewBox="0 0 19 18" id="svg-file-upload"><path fill-rule="evenodd" clip-rule="evenodd" d="M13.9868 3.73088C12.9055 2.64966 11.1525 2.64967 10.0713 3.73091L4.2033 9.5989L3.35477 8.75038L9.22275 2.88238C10.7726 1.33252 13.2854 1.3325 14.8353 2.88234C16.3852 4.43219 16.3852 6.94503 14.8354 8.49492L7.88905 15.4414C6.77116 16.5594 4.95866 16.5593 3.84078 15.4414C2.72298 14.3235 2.723 12.5112 3.84082 11.3933L10.6412 4.5927C11.3398 3.89413 12.4724 3.89416 13.1709 4.59277C13.8694 5.29131 13.8693 6.42378 13.1708 7.12228L7.07384 13.2193L6.22531 12.3708L12.3223 6.27375C12.5522 6.04386 12.5522 5.67114 12.3223 5.44124C12.0924 5.21132 11.7197 5.21131 11.4898 5.44122L4.68936 12.2418C4.04014 12.8911 4.04013 13.9437 4.68934 14.5929C5.33858 15.2422 6.39126 15.2422 7.04051 14.5929L13.9868 7.6464C15.0681 6.56515 15.068 4.8121 13.9868 3.73088Z"/></symbol><symbol viewBox="0 0 20 20" id="svg-filter"><path d="M6.66664 4.16667C6.44563 4.16667 6.23366 4.25446 6.07738 4.41074C5.9211 4.56702 5.83331 4.77899 5.83331 5C5.83331 5.22101 5.9211 5.43298 6.07738 5.58926C6.23366 5.74554 6.44563 5.83333 6.66664 5.83333C6.88765 5.83333 7.09961 5.74554 7.25589 5.58926C7.41217 5.43298 7.49997 5.22101 7.49997 5C7.49997 4.77899 7.41217 4.56702 7.25589 4.41074C7.09961 4.25446 6.88765 4.16667 6.66664 4.16667ZM4.16664 5C4.16664 4.33696 4.43003 3.70107 4.89887 3.23223C5.36771 2.76339 6.0036 2.5 6.66664 2.5C7.32968 2.5 7.96557 2.76339 8.43441 3.23223C8.90325 3.70107 9.16664 4.33696 9.16664 5C9.16664 5.66304 8.90325 6.29893 8.43441 6.76777C7.96557 7.23661 7.32968 7.5 6.66664 7.5C6.0036 7.5 5.36771 7.23661 4.89887 6.76777C4.43003 6.29893 4.16664 5.66304 4.16664 5ZM13.3333 9.16667C13.1123 9.16667 12.9003 9.25446 12.744 9.41074C12.5878 9.56702 12.5 9.77899 12.5 10C12.5 10.221 12.5878 10.433 12.744 10.5893C12.9003 10.7455 13.1123 10.8333 13.3333 10.8333C13.5543 10.8333 13.7663 10.7455 13.9226 10.5893C14.0788 10.433 14.1666 10.221 14.1666 10C14.1666 9.77899 14.0788 9.56702 13.9226 9.41074C13.7663 9.25446 13.5543 9.16667 13.3333 9.16667ZM10.8333 10C10.8333 9.33696 11.0967 8.70107 11.5655 8.23223C12.0344 7.76339 12.6703 7.5 13.3333 7.5C13.9963 7.5 14.6322 7.76339 15.1011 8.23223C15.5699 8.70107 15.8333 9.33696 15.8333 10C15.8333 10.663 15.5699 11.2989 15.1011 11.7678C14.6322 12.2366 13.9963 12.5 13.3333 12.5C12.6703 12.5 12.0344 12.2366 11.5655 11.7678C11.0967 11.2989 10.8333 10.663 10.8333 10ZM6.66664 14.1667C6.44563 14.1667 6.23366 14.2545 6.07738 14.4107C5.9211 14.567 5.83331 14.779 5.83331 15C5.83331 15.221 5.9211 15.433 6.07738 15.5893C6.23366 15.7455 6.44563 15.8333 6.66664 15.8333C6.88765 15.8333 7.09961 15.7455 7.25589 15.5893C7.41217 15.433 7.49997 15.221 7.49997 15C7.49997 14.779 7.41217 14.567 7.25589 14.4107C7.09961 14.2545 6.88765 14.1667 6.66664 14.1667ZM4.16664 15C4.16664 14.337 4.43003 13.7011 4.89887 13.2322C5.36771 12.7634 6.0036 12.5 6.66664 12.5C7.32968 12.5 7.96557 12.7634 8.43441 13.2322C8.90325 13.7011 9.16664 14.337 9.16664 15C9.16664 15.663 8.90325 16.2989 8.43441 16.7678C7.96557 17.2366 7.32968 17.5 6.66664 17.5C6.0036 17.5 5.36771 17.2366 4.89887 16.7678C4.43003 16.2989 4.16664 15.663 4.16664 15Z"/><path d="M2.5 4.99997C2.5 4.77896 2.5878 4.567 2.74408 4.41072C2.90036 4.25444 3.11232 4.16664 3.33333 4.16664H5C5.22101 4.16664 5.43298 4.25444 5.58926 4.41072C5.74554 4.567 5.83331 4.77899 5.83331 5C5.83331 5.22101 5.74554 5.43295 5.58926 5.58923C5.43298 5.74551 5.22101 5.83331 5 5.83331H3.33333C3.11232 5.83331 2.90036 5.74551 2.74408 5.58923C2.5878 5.43295 2.5 5.22099 2.5 4.99997ZM7.49997 5C7.49997 4.77899 7.5878 4.567 7.74408 4.41072C7.90036 4.25444 8.11232 4.16664 8.33333 4.16664H16.6667C16.8877 4.16664 17.0996 4.25444 17.2559 4.41072C17.4122 4.567 17.5 4.77896 17.5 4.99997C17.5 5.22099 17.4122 5.43295 17.2559 5.58923C17.0996 5.74551 16.8877 5.83331 16.6667 5.83331H8.33333C8.11232 5.83331 7.90036 5.74551 7.74408 5.58923C7.5878 5.43295 7.49997 5.22101 7.49997 5ZM2.5 9.99997C2.5 9.77896 2.5878 9.567 2.74408 9.41072C2.90036 9.25444 3.11232 9.16664 3.33333 9.16664H11.6667C11.8877 9.16664 12.0996 9.25444 12.2559 9.41072C12.4122 9.567 12.5 9.77899 12.5 10C12.5 10.221 12.4122 10.4329 12.2559 10.5892C12.0996 10.7455 11.8877 10.8333 11.6667 10.8333H3.33333C3.11232 10.8333 2.90036 10.7455 2.74408 10.5892C2.5878 10.4329 2.5 10.221 2.5 9.99997ZM14.1666 10C14.1666 9.77899 14.2545 9.567 14.4107 9.41072C14.567 9.25444 14.779 9.16664 15 9.16664H16.6667C16.8877 9.16664 17.0996 9.25444 17.2559 9.41072C17.4122 9.567 17.5 9.77896 17.5 9.99997C17.5 10.221 17.4122 10.4329 17.2559 10.5892C17.0996 10.7455 16.8877 10.8333 16.6667 10.8333H15C14.779 10.8333 14.567 10.7455 14.4107 10.5892C14.2545 10.4329 14.1666 10.221 14.1666 10ZM2.5 15C2.5 14.779 2.5878 14.567 2.74408 14.4107C2.90036 14.2544 3.11232 14.1666 3.33333 14.1666H5C5.22101 14.1666 5.43298 14.2544 5.58926 14.4107C5.74554 14.567 5.83331 14.779 5.83331 15C5.83331 15.221 5.74554 15.4329 5.58926 15.5892C5.43298 15.7455 5.22101 15.8333 5 15.8333H3.33333C3.11232 15.8333 2.90036 15.7455 2.74408 15.5892C2.5878 15.4329 2.5 15.221 2.5 15ZM7.49997 15C7.49997 14.779 7.5878 14.567 7.74408 14.4107C7.90036 14.2544 8.11232 14.1666 8.33333 14.1666H16.6667C16.8877 14.1666 17.0996 14.2544 17.2559 14.4107C17.4122 14.567 17.5 14.779 17.5 15C17.5 15.221 17.4122 15.4329 17.2559 15.5892C17.0996 15.7455 16.8877 15.8333 16.6667 15.8333H8.33333C8.11232 15.8333 7.90036 15.7455 7.74408 15.5892C7.5878 15.4329 7.49997 15.221 7.49997 15Z"/></symbol><symbol viewBox="0 0 24 24" id="svg-icon_social_fb"><path d="M13.0323 12.4223H14.9846L15.2369 9.96339H13.0328V8.51813C13.0328 7.97483 13.3924 7.84819 13.6457 7.84819H15.2016V5.46085L13.0589 5.45264C10.6807 5.45264 10.1393 7.23287 10.1393 8.37216V9.96291H8.76416V12.4223H10.1393V19.3817H13.0323V12.4223Z"/></symbol><symbol viewBox="0 0 24 24" id="svg-icon_social_tg"><path d="M6.07494 11.7812C9.29616 10.3778 11.4441 9.45256 12.5189 9.00553C15.5875 7.72919 16.2251 7.50747 16.6407 7.50007C16.7322 7.49854 16.9365 7.52119 17.0689 7.62862C17.1807 7.71932 17.2115 7.84186 17.2262 7.92786C17.2409 8.01386 17.2592 8.20977 17.2447 8.36285C17.0784 10.1101 16.3588 14.3501 15.9928 16.307C15.8379 17.1351 15.5329 17.4127 15.2376 17.4399C14.596 17.4989 14.1087 17.0158 13.4872 16.6084C12.5147 15.9709 11.9653 15.5741 11.0213 14.952C9.93032 14.2331 10.6375 13.8379 11.2593 13.1922C11.422 13.0232 14.2492 10.4516 14.3039 10.2183C14.3108 10.1891 14.3171 10.0804 14.2525 10.023C14.1879 9.96553 14.0926 9.98516 14.0238 10.0008C13.9262 10.0229 12.3726 11.0498 9.36292 13.0814C8.92193 13.3842 8.5225 13.5318 8.16462 13.524C7.77009 13.5155 7.01117 13.301 6.44699 13.1176C5.755 12.8926 5.20502 12.7737 5.25291 12.3917C5.27785 12.1927 5.55186 11.9892 6.07494 11.7812Z"/></symbol><symbol viewBox="0 0 24 24" id="svg-icon_social_vk"><path fill-rule="evenodd" clip-rule="evenodd" d="M18.6377 8.65785C18.4583 8.5251 17.8139 8.5251 17.1761 8.5251C16.5248 8.53837 15.8735 8.53837 15.7206 8.59823C15.5815 8.65124 15.2691 9.40879 14.864 10.1859C14.3984 11.0635 13.834 11.9137 13.475 11.9C13.0033 11.9 13.1165 10.4583 13.1496 9.38887C13.1561 8.69099 13.0432 8.46496 12.9435 8.40557C12.6977 8.2326 12.0201 8.0669 12.0201 8.0669C12.0201 8.0669 9.98652 7.91376 9.7011 8.79084C10.093 8.84409 10.7575 8.72409 10.4984 11.4416C10.4785 11.5748 10.186 12.6909 9.24247 11.1825C9.00322 10.8041 8.09989 8.53832 7.78086 8.5251C6.73724 8.50499 5.70116 8.45859 5.34261 8.65785C5.00347 8.85735 5.79416 10.412 7.12982 12.4986C8.21253 14.2126 9.36219 15.5417 11.3555 15.8737C11.7342 15.9139 12.7045 15.9532 13.0168 15.8075C13.2225 15.7076 12.9633 14.2327 13.6745 14.0863C13.9869 14.0267 15.2023 15.6281 15.6607 15.8075C15.9405 15.9203 16.5515 15.9667 17.176 15.94C17.8538 15.9203 18.6242 16.0068 18.6973 15.5417C18.8637 14.5251 16.6447 13.1957 16.5846 12.5714C16.5314 12.1197 17.3954 11.2892 17.8337 10.6512C18.3783 9.8804 18.9768 8.95035 18.6377 8.65785Z"/></symbol><symbol viewBox="0 0 24 24" id="svg-icon_social_yt"><path fill-rule="evenodd" clip-rule="evenodd" d="M19.1866 8.38959C19.0141 7.74417 18.5059 7.236 17.8605 7.0635C16.6906 6.75 12 6.75 12 6.75C12 6.75 7.30936 6.75 6.13945 7.0635C5.49422 7.236 4.98586 7.74417 4.81336 8.38959C4.5 9.55936 4.5 12.0001 4.5 12.0001C4.5 12.0001 4.5 14.4407 4.81336 15.6104C4.98586 16.2558 5.49422 16.7642 6.13945 16.9366C7.30936 17.25 12 17.25 12 17.25C12 17.25 16.6906 17.25 17.8605 16.9366C18.5059 16.7642 19.0141 16.2558 19.1866 15.6104C19.5 14.4407 19.5 12.0001 19.5 12.0001C19.5 12.0001 19.5 9.55936 19.1866 8.38959ZM10.5 9.75005V14.2501L14.397 12.0001L10.5 9.75005Z"/></symbol><symbol viewBox="0 0 16 16" id="svg-link_icon"><g clip-path="url(#bcclip0_1996_64499)"><path d="M13.9776 7.83L11.9751 9.87179C11.8611 9.9882 11.7436 10.0952 11.6208 10.1947C11.1528 10.5775 10.6233 10.8419 10.0688 10.9909C9.56554 11.1312 9.04001 11.1722 8.52315 11.1151C8.0424 11.064 7.56696 10.9287 7.1225 10.708C6.70441 10.5035 6.31269 10.2239 5.96735 9.87179C5.62201 9.51967 5.34783 9.12026 5.14746 8.69397C5.70078 8.2933 6.4743 8.3469 6.96868 8.85098C7.47686 9.36915 8.13019 9.64979 8.79485 9.69203C9.26923 9.72126 9.75228 9.62922 10.1905 9.41499C10.4745 9.27854 10.74 9.08958 10.974 8.85098L12.9765 6.80902C14.0829 5.68102 14.0905 3.86104 12.9841 2.73286C11.8788 1.60593 10.0778 1.59709 8.97133 2.72528L7.4319 4.29492C6.84973 4.13538 6.24897 4.07419 5.65087 4.1074C5.74857 3.98233 5.85372 3.86231 5.96753 3.74626L7.97 1.70448C9.62838 0.0135475 12.3194 0.0135475 13.9778 1.70448C15.6361 3.3954 15.6361 6.13908 13.9776 7.83Z"/><path d="M9.36506 12.2318L7.36089 14.2721C5.70126 15.9617 3.02448 15.9783 1.36361 14.2873C-0.296026 12.5977 -0.311083 9.84091 1.34855 8.15134L3.35255 6.11101C3.46662 5.99488 3.58425 5.88794 3.707 5.78839C4.17554 5.40572 4.70537 5.14189 5.26035 4.99257C5.76379 4.85227 6.2899 4.81151 6.80732 4.86886C7.28826 4.91989 7.76424 5.05514 8.20904 5.27551C8.62727 5.47966 9.01946 5.759 9.36506 6.11083C9.71066 6.46285 9.98506 6.86193 10.1854 7.28771C9.63184 7.68823 8.85791 7.63467 8.36298 7.13081C7.85441 6.61307 7.20058 6.33265 6.53559 6.29045C6.06085 6.26105 5.57744 6.35302 5.13901 6.56726C4.8547 6.7036 4.58917 6.89241 4.35499 7.13081L2.35064 9.17132C1.24351 10.2988 1.24351 12.1247 2.35064 13.2518C3.45794 14.3793 5.25167 14.3793 6.3588 13.2518L7.8994 11.6834C8.4806 11.8416 9.0843 11.9029 9.68179 11.8711C9.58436 11.9961 9.47914 12.1159 9.36506 12.2318Z"/></g><defs><clipPath id="bcclip0_1996_64499"><path transform="translate(.111 .436)" d="M0 0H15.111V15.111H0z"/></clipPath></defs></symbol><symbol viewBox="0 0 88 88" id="svg-newspaper"><path d="M72.666 18.9167V69.0833H15.3327V18.9167H72.666ZM72.666 11.75H15.3327C11.3552 11.75 8.16602 14.9392 8.16602 18.9167V69.0833C8.16602 73.0608 11.3552 76.25 15.3327 76.25H72.666C76.6435 76.25 79.8327 73.0608 79.8327 69.0833V18.9167C79.8327 14.9392 76.6435 11.75 72.666 11.75ZM65.4994 54.75H22.4993V61.9167H65.4994V54.75ZM36.8327 26.0833H22.4993V47.5833H36.8327V26.0833ZM43.9994 33.25H65.4994V26.0833H43.9994V33.25ZM65.4994 40.4167H43.9994V47.5833H65.4994V40.4167Z" opacity=".21"/></symbol><symbol viewBox="0 0 18 18" id="svg-tippy"><path d="M8.25 6.75H9.75V5.25H8.25V6.75ZM9 15C5.6925 15 3 12.3075 3 9C3 5.6925 5.6925 3 9 3C12.3075 3 15 5.6925 15 9C15 12.3075 12.3075 15 9 15ZM9 1.5C8.01509 1.5 7.03982 1.69399 6.12987 2.0709C5.21993 2.44781 4.39314 3.00026 3.6967 3.6967C2.29018 5.10322 1.5 7.01088 1.5 9C1.5 10.9891 2.29018 12.8968 3.6967 14.3033C4.39314 14.9997 5.21993 15.5522 6.12987 15.9291C7.03982 16.306 8.01509 16.5 9 16.5C10.9891 16.5 12.8968 15.7098 14.3033 14.3033C15.7098 12.8968 16.5 10.9891 16.5 9C16.5 8.01509 16.306 7.03982 15.9291 6.12987C15.5522 5.21993 14.9997 4.39314 14.3033 3.6967C13.6069 3.00026 12.7801 2.44781 11.8701 2.0709C10.9602 1.69399 9.98491 1.5 9 1.5ZM8.25 12.75H9.75V8.25H8.25V12.75Z"/></symbol></svg>