<svg width="20" height="20" viewBox="0 0 20 20" fill="none" xmlns="http://www.w3.org/2000/svg">
<path fill-rule="evenodd" clip-rule="evenodd" d="M14.6972 5.30304C14.9901 5.59594 14.9901 6.07081 14.6972 6.3637L6.36383 14.697C6.07093 14.9899 5.59606 14.9899 5.30317 14.697C5.01027 14.4041 5.01027 13.9293 5.30317 13.6364L13.6365 5.30304C13.9294 5.01015 14.4043 5.01015 14.6972 5.30304Z" fill="#008AFF"/>
<path fill-rule="evenodd" clip-rule="evenodd" d="M5.0835 5.83337C5.0835 5.41916 5.41928 5.08337 5.8335 5.08337H14.1668C14.581 5.08337 14.9168 5.41916 14.9168 5.83337V14.1667C14.9168 14.5809 14.581 14.9167 14.1668 14.9167C13.7526 14.9167 13.4168 14.5809 13.4168 14.1667V6.58337H5.8335C5.41928 6.58337 5.0835 6.24759 5.0835 5.83337Z" fill="#008AFF"/>
</svg>
