<svg width="88" height="88" viewBox="0 0 88 88" fill="none" xmlns="http://www.w3.org/2000/svg">
<g opacity="0.2">
<path d="M69.6667 73.3335H18.3333V33.0002H69.6667V73.3335ZM58.6667 7.3335V14.6668H29.3333V7.3335H22V14.6668H18.3333C14.2633 14.6668 11 17.9302 11 22.0002V73.3335C11 75.2784 11.7726 77.1437 13.1479 78.5189C14.5231 79.8942 16.3884 80.6668 18.3333 80.6668H69.6667C71.6116 80.6668 73.4768 79.8942 74.8521 78.5189C76.2274 77.1437 77 75.2784 77 73.3335V22.0002C77 17.9302 73.7 14.6668 69.6667 14.6668H66V7.3335H58.6667ZM62.3333 47.6668H44V66.0002H62.3333V47.6668Z" fill="#518CDB"/>
</g>
</svg>
