<svg width="20" height="20" viewBox="0 0 20 20" fill="none" xmlns="http://www.w3.org/2000/svg">
<path fill-rule="evenodd" clip-rule="evenodd" d="M4.86839 2.46014C4.86839 2.02182 5.22184 1.6665 5.65785 1.6665H6.05258C6.4886 1.6665 6.84205 2.02182 6.84205 2.46014V3.25378H13.1577V2.46014C13.1577 2.02182 13.5112 1.6665 13.9472 1.6665H14.3419C14.778 1.6665 15.1314 2.02182 15.1314 2.46014V3.25378H15.9209C16.7929 3.25378 17.4998 3.96443 17.4998 4.84106V16.7457C17.4998 17.6223 16.7929 18.3329 15.9209 18.3329H4.07893C3.20691 18.3329 2.5 17.6223 2.5 16.7457V4.84106C2.5 3.96443 3.20691 3.25378 4.07893 3.25378H4.86839V2.46014ZM15.9209 7.22198H4.07893V15.5552C4.07893 16.2127 4.60911 16.7457 5.26312 16.7457H14.7367C15.3907 16.7457 15.9209 16.2127 15.9209 15.5552V7.22198Z" fill="#5C5C5C"/>
</svg>
