<svg width="20" height="20" viewBox="0 0 20 20" fill="none" xmlns="http://www.w3.org/2000/svg">
<path fill-rule="evenodd" clip-rule="evenodd" d="M12.1749 3.25378C12.0611 3.64947 12.0001 4.06751 12.0001 4.4998C12.0001 5.52283 12.3415 6.46613 12.9166 7.22198H4.07886V15.5552C4.07886 16.2127 4.60904 16.7457 5.26306 16.7457H14.7366C15.3906 16.7457 15.9208 16.2127 15.9208 15.5552V8.9628C16.1105 8.98717 16.3038 8.99974 16.5001 8.99974C16.8436 8.99974 17.1782 8.96123 17.4997 8.8883V16.7457C17.4997 17.6223 16.7928 18.3329 15.9208 18.3329H4.07886C3.20685 18.3329 2.49994 17.6223 2.49994 16.7457V4.84106C2.49994 3.96443 3.20685 3.25378 4.07886 3.25378H4.86833V2.46014C4.86833 2.02182 5.22178 1.6665 5.65779 1.6665H6.05252C6.48854 1.6665 6.84198 2.02182 6.84198 2.46014V3.25378H12.1749Z" fill="#008AFF"/>
<rect x="13.9996" y="2" width="4.99993" height="4.99993" rx="2.49997" fill="#FF4A63"/>
</svg>
