<svg width="32" height="32" viewBox="0 0 32 32" fill="none" xmlns="http://www.w3.org/2000/svg">
<path d="M19.2708 28.673L27.6588 25.0523L27.7191 23.1815C27.0553 22.9402 26.3915 22.8798 25.6674 22.8798C22.3484 22.8195 19.5725 25.4143 19.2708 28.673Z" fill="#216CB4"/>
<path d="M15.5289 29.6988L16.1927 30.0005L18.0031 29.216C18.0031 27.1039 18.8479 25.1729 20.2359 23.7849C21.6238 22.397 23.5549 21.5522 25.6669 21.5522C26.3911 21.5522 27.0549 21.6729 27.7187 21.8539L27.779 19.3194C27.1152 19.1987 26.3911 19.078 25.6669 19.078C22.8307 19.078 20.2962 20.2246 18.4858 22.0349C16.6151 23.9056 15.5289 26.4401 15.5289 29.216C15.4686 29.3971 15.4686 29.5781 15.5289 29.6988Z" fill="#3581BF"/>
<path d="M11.8479 28.1292L14.3221 29.2154C14.3221 26.0775 15.5893 23.2413 17.6411 21.1895C19.6928 19.1378 22.529 17.8705 25.7273 17.8705C26.4515 17.8705 27.1756 17.9309 27.8998 18.0515L27.9601 15.517C27.236 15.3964 26.5118 15.336 25.7273 15.336C21.8652 15.336 18.4256 16.905 15.8911 19.3791C13.5979 21.6723 12.0893 24.7499 11.8479 28.1292Z" fill="#6797CE"/>
<path d="M8.16699 26.5605L10.5808 27.5864C11.4256 19.9828 17.8223 14.0086 25.6672 14.0086C26.4517 14.0086 27.1758 14.069 27.9603 14.1897L28.0206 11.6552C27.2361 11.5345 26.4517 11.4741 25.6672 11.4741C16.7964 11.5345 9.49459 18.0518 8.16699 26.5605Z" fill="#97B3DD"/>
<path d="M4.54614 19.2589L4.60647 21.7935C5.27027 21.6124 5.93409 21.4917 6.65823 21.4917C7.26169 21.4917 7.86514 21.5521 8.40824 21.6728C8.77032 20.8883 9.13239 20.1038 9.61515 19.3796C8.70997 19.0779 7.6841 18.9572 6.65823 18.9572C5.99443 19.0176 5.27029 19.1383 4.54614 19.2589Z" fill="#28A85E"/>
<path d="M4.66675 23.1817L4.7271 25.0524L7.14091 26.1386C7.32195 25.0524 7.62367 23.9662 7.98575 23.0007C7.56333 22.9404 7.14091 22.88 6.71849 22.88C5.99434 22.8197 5.33055 22.9403 4.66675 23.1817Z" fill="#249842"/>
<path d="M4.48584 15.5178L4.54619 18.0523C5.27033 17.9316 5.99446 17.8712 6.71861 17.8712C7.98586 17.8712 9.19277 18.0523 10.3393 18.4747C10.8221 17.7506 11.4256 17.0868 12.029 16.423C10.3997 15.7592 8.58932 15.3971 6.71861 15.3971C5.93412 15.3367 5.20998 15.3971 4.48584 15.5178Z" fill="#5EB980"/>
<path d="M4.36523 11.6554L4.42558 14.1899C5.14973 14.0692 5.93421 14.0089 6.7187 14.0089C8.95148 14.0089 11.0636 14.4917 12.9946 15.3968C13.6584 14.7934 14.3826 14.1899 15.1671 13.7072C12.6326 12.3192 9.79632 11.5347 6.7187 11.5347C5.93421 11.5347 5.14972 11.5951 4.36523 11.6554Z" fill="#93CBA2"/>
<path d="M12.3913 2H7.32228C6.9602 2.30173 6.59814 2.60346 6.23607 2.96553C5.45158 3.75002 4.78778 4.59487 4.18433 5.56039L4.30501 10.6294C4.48604 10.6294 4.66709 10.5691 4.84813 10.5691C5.27055 8.33628 6.4171 6.28452 7.98608 4.71554C9.25333 3.50864 10.7016 2.54311 12.3913 2ZM28.0208 10.6294L28.1414 5.92245C27.538 4.83623 26.7535 3.81037 25.9087 2.96553C25.5466 2.60346 25.2449 2.30173 24.8224 2H19.7534C21.3828 2.54311 22.8914 3.50864 24.0983 4.71554C25.6673 6.28452 26.7535 8.27593 27.2363 10.5087C27.538 10.5691 27.7794 10.5691 28.0208 10.6294Z" fill="#E7D572"/>
<path d="M16.0722 5.07728C13.9601 5.07728 12.029 5.92213 10.6411 7.31007C9.73591 8.21525 9.07212 9.30146 8.71005 10.5084C8.04625 10.448 7.38244 10.3877 6.71864 10.3877C6.53761 10.3877 6.35657 10.3877 6.17554 10.3877C6.59795 8.51698 7.56348 6.82731 8.89108 5.49971C10.7618 3.629 13.2963 2.54279 16.0722 2.54279C18.9084 2.54279 21.4429 3.68934 23.2533 5.49971C24.5809 6.82731 25.5464 8.51698 25.9688 10.3877C25.8482 10.3877 25.7275 10.3877 25.6671 10.3877C24.8826 10.3877 24.1585 10.448 23.4343 10.5084C23.0723 9.24112 22.4084 8.1549 21.5033 7.24972C20.1153 5.92212 18.1843 5.07728 16.0722 5.07728Z" fill="#DECA41"/>
<path d="M16.0722 6.34485C13.2359 6.34485 10.8221 8.1552 9.97729 10.7501C12.2704 11.1725 14.1411 11.8966 16.1929 13.0432C18.0032 11.957 19.9946 11.2328 22.1671 10.8104C21.3222 8.21555 18.9084 6.34485 16.0722 6.34485Z" fill="#D7C125"/>
<path d="M5.39104 2H4.12378L4.18413 3.38796C4.5462 2.84485 4.96862 2.42242 5.39104 2ZM28.2016 3.62933L28.2619 2H26.7533L26.8137 2.06035C27.2964 2.54311 27.7792 3.08622 28.2016 3.62933Z" fill="#F0E8B3"/>
</svg>
