<svg width="118" height="64" viewBox="0 0 118 64" fill="none" xmlns="http://www.w3.org/2000/svg">
<g clip-path="url(#clip0_2158_95634)">
<path d="M27.8908 45.9497H25.2983V52.9266H27.8908V45.9497Z" fill="#484848"/>
<path d="M32.3607 45.9497H29.7683V52.9266H32.3607V45.9497Z" fill="#484848"/>
<path d="M36.8302 45.9497H34.2378V52.9266H36.8302V45.9497Z" fill="#484848"/>
<path d="M41.3895 45.9497H38.7971V52.9266H41.3895V45.9497Z" fill="#484848"/>
<path d="M45.8591 45.9497H43.0879V52.9266H45.8591V45.9497Z" fill="#484848"/>
<path d="M50.3288 45.9497H47.5576V52.9266H50.3288V45.9497Z" fill="#484848"/>
<path d="M54.7091 45.9497H52.1167V52.9266H54.7091V45.9497Z" fill="#484848"/>
<path d="M59.1788 45.9497H56.5864V52.9266H59.1788V45.9497Z" fill="#484848"/>
<path d="M63.6486 45.9497H61.0562V52.9266H63.6486V45.9497Z" fill="#484848"/>
<path d="M68.2074 45.9497H65.615V52.9266H68.2074V45.9497Z" fill="#484848"/>
<path d="M72.6774 45.9497H69.9062V52.9266H72.6774V45.9497Z" fill="#484848"/>
<path d="M77.1469 45.9497H74.3757V52.9266H77.1469V45.9497Z" fill="#484848"/>
<path d="M81.5275 45.9497H78.9351V52.9266H81.5275V45.9497Z" fill="#484848"/>
<path d="M85.997 45.9497H83.4045V52.9266H85.997V45.9497Z" fill="#484848"/>
<path d="M90.4665 45.9497H87.874V52.9266H90.4665V45.9497Z" fill="#484848"/>
<path d="M95.0255 45.9497H92.4331V52.9266H95.0255V45.9497Z" fill="#484848"/>
<path d="M27.8908 53.7216H25.2983V56.4593H27.8908V53.7216Z" fill="#484848"/>
<path d="M32.3607 53.7216H29.7683V56.4593H32.3607V53.7216Z" fill="#484848"/>
<path d="M36.8302 53.7216H34.2378V56.4593H36.8302V53.7216Z" fill="#484848"/>
<path d="M41.3895 53.7216H38.7971V56.4593H41.3895V53.7216Z" fill="#484848"/>
<path d="M43.0879 53.7216H45.8591V56.5477H43.0879V53.7216Z" fill="#484848"/>
<path d="M47.5576 53.8099L50.3288 53.7216V56.5477H47.5576V53.8099Z" fill="#484848"/>
<path d="M54.7091 53.7216H52.1167V56.4593H54.7091V53.7216Z" fill="#484848"/>
<path d="M59.1788 53.7216H56.5864V56.4593H59.1788V53.7216Z" fill="#484848"/>
<path d="M63.6486 53.7216H61.0562V56.4593H63.6486V53.7216Z" fill="#484848"/>
<path d="M68.2074 53.7216H65.615V56.4593H68.2074V53.7216Z" fill="#484848"/>
<path d="M69.9062 53.7216L72.6774 53.8099V56.5477H69.9062V53.7216Z" fill="#484848"/>
<path d="M74.3757 53.8099L77.1469 53.7216V56.5477H74.3757V53.8099Z" fill="#484848"/>
<path d="M81.5275 53.7216H78.9351V56.4593H81.5275V53.7216Z" fill="#484848"/>
<path d="M85.997 53.7216H83.4045V56.4593H85.997V53.7216Z" fill="#484848"/>
<path d="M90.4665 53.7216H87.874V56.4593H90.4665V53.7216Z" fill="#484848"/>
<path d="M95.0255 53.7216H92.4331V56.4593H95.0255V53.7216Z" fill="#484848"/>
<path d="M33.9698 40.4741H31.6455V41.4456H33.9698V40.4741Z" fill="#484848"/>
<path d="M37.6349 40.4741H35.0425V41.4456H37.6349V40.4741Z" fill="#484848"/>
<path d="M41.3002 40.4741H38.7078V41.4456H41.3002V40.4741Z" fill="#484848"/>
<path d="M44.6968 40.4741H42.3726V41.4456H44.6968V40.4741Z" fill="#484848"/>
<path d="M62.7546 40.4741H60.1621V41.4456H62.7546V40.4741Z" fill="#484848"/>
<path d="M59.0893 40.4741H56.4968V41.4456H59.0893V40.4741Z" fill="#484848"/>
<path d="M55.4243 40.4741H53.1001V41.4456H55.4243V40.4741Z" fill="#484848"/>
<path d="M48.362 40.4741H45.7695V41.4456H48.362V40.4741Z" fill="#484848"/>
<path d="M52.0272 40.4741H49.4348V41.4456H52.0272V40.4741Z" fill="#484848"/>
<path d="M84.2092 40.4741H81.6167V41.4456H84.2092V40.4741Z" fill="#484848"/>
<path d="M80.5438 40.4741H77.9514V41.4456H80.5438V40.4741Z" fill="#484848"/>
<path d="M76.8787 40.4741H74.5544V41.4456H76.8787V40.4741Z" fill="#484848"/>
<path d="M73.4818 40.4741H70.8894V41.4456H73.4818V40.4741Z" fill="#484848"/>
<path d="M69.8165 40.4741H67.2241V41.4456H69.8165V40.4741Z" fill="#484848"/>
<path d="M66.241 40.4741H63.8274V41.4456H66.241V40.4741Z" fill="#484848"/>
<path d="M33.9698 37.1182H31.6455V39.0611H33.9698V37.1182Z" fill="#484848"/>
<path d="M87.6062 40.4741H85.282V41.4456H87.6062V40.4741Z" fill="#484848"/>
<path d="M37.6349 37.1182H35.0425V39.0611H37.6349V37.1182Z" fill="#484848"/>
<path d="M41.3002 37.1182H38.7078V39.0611H41.3002V37.1182Z" fill="#484848"/>
<path d="M44.7862 37.1182H42.3726V39.0611H44.7862V37.1182Z" fill="#484848"/>
<path d="M48.362 37.1182H45.7695V39.0611H48.362V37.1182Z" fill="#484848"/>
<path d="M52.0272 37.1182H49.4348V39.0611H52.0272V37.1182Z" fill="#484848"/>
<path d="M55.4243 37.1182H53.1001V39.0611H55.4243V37.1182Z" fill="#484848"/>
<path d="M59.0893 37.1182H56.4968V39.0611H59.0893V37.1182Z" fill="#484848"/>
<path d="M76.8787 37.1182H74.5544V39.0611H76.8787V37.1182Z" fill="#484848"/>
<path d="M73.4818 37.1182H70.8894V39.0611H73.4818V37.1182Z" fill="#484848"/>
<path d="M69.8165 37.1182H67.2241V39.0611H69.8165V37.1182Z" fill="#484848"/>
<path d="M66.241 37.1182H63.8274V39.0611H66.241V37.1182Z" fill="#484848"/>
<path d="M62.7546 37.1182H60.1621V39.0611H62.7546V37.1182Z" fill="#484848"/>
<path d="M87.6062 37.1182H85.282V39.0611H87.6062V37.1182Z" fill="#484848"/>
<path d="M84.2092 37.1182H81.6167V39.0611H84.2092V37.1182Z" fill="#484848"/>
<path d="M80.5438 37.1182H77.9514V39.0611H80.5438V37.1182Z" fill="#484848"/>
<path d="M33.9698 33.4974H31.6455V35.4404H33.9698V33.4974Z" fill="#484848"/>
<path d="M37.6349 33.4974H35.0425V35.4404H37.6349V33.4974Z" fill="#484848"/>
<path d="M41.3002 33.4974H38.7078V35.4404H41.3002V33.4974Z" fill="#484848"/>
<path d="M44.7862 33.4974H42.3726V35.4404H44.7862V33.4974Z" fill="#484848"/>
<path d="M48.362 33.4974H45.7695V35.4404H48.362V33.4974Z" fill="#484848"/>
<path d="M52.0272 33.4974H49.4348V35.4404H52.0272V33.4974Z" fill="#484848"/>
<path d="M55.4243 33.4974H53.1001V35.4404H55.4243V33.4974Z" fill="#484848"/>
<path d="M59.0893 33.4974H56.4968V35.4404H59.0893V33.4974Z" fill="#484848"/>
<path d="M76.8787 33.4974H74.5544V35.4404H76.8787V33.4974Z" fill="#484848"/>
<path d="M73.4818 33.4974H70.8894V35.4404H73.4818V33.4974Z" fill="#484848"/>
<path d="M69.8165 33.4974H67.2241V35.4404H69.8165V33.4974Z" fill="#484848"/>
<path d="M66.241 33.4974H63.8274V35.4404H66.241V33.4974Z" fill="#484848"/>
<path d="M62.7546 33.4974H60.1621V35.4404H62.7546V33.4974Z" fill="#484848"/>
<path d="M87.6062 33.4974H85.282V35.4404H87.6062V33.4974Z" fill="#484848"/>
<path d="M84.2092 33.4974H81.6167V35.4404H84.2092V33.4974Z" fill="#484848"/>
<path d="M80.5438 33.4974H77.9514V35.4404H80.5438V33.4974Z" fill="#484848"/>
<path d="M33.9698 30.0529H31.6455V31.9958H33.9698V30.0529Z" fill="#484848"/>
<path d="M37.6349 30.0529H35.0425V31.9958H37.6349V30.0529Z" fill="#484848"/>
<path d="M41.3002 30.0529H38.7078V31.9958H41.3002V30.0529Z" fill="#484848"/>
<path d="M44.7862 30.0529H42.3726V31.9958H44.7862V30.0529Z" fill="#484848"/>
<path d="M48.362 30.0529H45.7695V31.9958H48.362V30.0529Z" fill="#484848"/>
<path d="M52.0272 30.0529H49.4348V31.9958H52.0272V30.0529Z" fill="#484848"/>
<path d="M55.4243 30.0529H53.1001V31.9958H55.4243V30.0529Z" fill="#484848"/>
<path d="M59.0893 30.0529H56.4968V31.9958H59.0893V30.0529Z" fill="#484848"/>
<path d="M76.8787 30.0529H74.5544V31.9958H76.8787V30.0529Z" fill="#484848"/>
<path d="M73.4818 30.0529H70.8894V31.9958H73.4818V30.0529Z" fill="#484848"/>
<path d="M69.8165 30.0529H67.2241V31.9958H69.8165V30.0529Z" fill="#484848"/>
<path d="M66.241 30.0529H63.8274V31.9958H66.241V30.0529Z" fill="#484848"/>
<path d="M62.7546 30.0529H60.1621V31.9958H62.7546V30.0529Z" fill="#484848"/>
<path d="M87.6062 30.0529H85.282V31.9958H87.6062V30.0529Z" fill="#484848"/>
<path d="M84.2092 30.0529H81.6167V31.9958H84.2092V30.0529Z" fill="#484848"/>
<path d="M80.5438 30.0529H77.9514V31.9958H80.5438V30.0529Z" fill="#484848"/>
<path d="M33.9698 26.5205H31.6455V28.4634H33.9698V26.5205Z" fill="#484848"/>
<path d="M37.6349 26.5205H35.0425V28.4634H37.6349V26.5205Z" fill="#484848"/>
<path d="M41.3002 26.5205H38.7078V28.4634H41.3002V26.5205Z" fill="#484848"/>
<path d="M44.7862 26.5205H42.3726V28.4634H44.7862V26.5205Z" fill="#484848"/>
<path d="M48.362 26.5205H45.7695V28.4634H48.362V26.5205Z" fill="#484848"/>
<path d="M52.0272 26.5205H49.4348V28.4634H52.0272V26.5205Z" fill="#484848"/>
<path d="M55.4243 26.5205H53.1001V28.4634H55.4243V26.5205Z" fill="#484848"/>
<path d="M59.0893 26.5205H56.4968V28.4634H59.0893V26.5205Z" fill="#484848"/>
<path d="M76.8787 26.5205H74.5544V28.4634H76.8787V26.5205Z" fill="#484848"/>
<path d="M73.4818 26.5205H70.8894V28.4634H73.4818V26.5205Z" fill="#484848"/>
<path d="M69.8165 26.5205H67.2241V28.4634H69.8165V26.5205Z" fill="#484848"/>
<path d="M66.241 26.5205H63.8274V28.4634H66.241V26.5205Z" fill="#484848"/>
<path d="M62.7546 26.5205H60.1621V28.4634H62.7546V26.5205Z" fill="#484848"/>
<path d="M87.6062 26.5205H85.282V28.4634H87.6062V26.5205Z" fill="#484848"/>
<path d="M84.2092 26.5205H81.6167V28.4634H84.2092V26.5205Z" fill="#484848"/>
<path d="M80.5438 26.5205H77.9514V28.4634H80.5438V26.5205Z" fill="#484848"/>
<path d="M33.9698 22.8994H31.6455V24.8424H33.9698V22.8994Z" fill="#484848"/>
<path d="M37.6349 22.8994H35.0425V24.8424H37.6349V22.8994Z" fill="#484848"/>
<path d="M41.3002 22.8994H38.7078V24.8424H41.3002V22.8994Z" fill="#484848"/>
<path d="M44.7862 22.8994H42.3726V24.8424H44.7862V22.8994Z" fill="#484848"/>
<path d="M48.362 22.8994H45.7695V24.8424H48.362V22.8994Z" fill="#484848"/>
<path d="M52.0272 22.8994H49.4348V24.8424H52.0272V22.8994Z" fill="#484848"/>
<path d="M55.4243 22.8994H53.1001V24.8424H55.4243V22.8994Z" fill="#484848"/>
<path d="M59.0893 22.8994H56.4968V24.8424H59.0893V22.8994Z" fill="#484848"/>
<path d="M76.8787 22.8994H74.5544V24.8424H76.8787V22.8994Z" fill="#484848"/>
<path d="M73.4818 22.8994H70.8894V24.8424H73.4818V22.8994Z" fill="#484848"/>
<path d="M69.8165 22.8994H67.2241V24.8424H69.8165V22.8994Z" fill="#484848"/>
<path d="M66.241 22.8994H63.8274V24.8424H66.241V22.8994Z" fill="#484848"/>
<path d="M62.7546 22.8994H60.1621V24.8424H62.7546V22.8994Z" fill="#484848"/>
<path d="M87.6062 22.8994H85.282V24.8424H87.6062V22.8994Z" fill="#484848"/>
<path d="M84.2092 22.8994H81.6167V24.8424H84.2092V22.8994Z" fill="#484848"/>
<path d="M80.5438 22.8994H77.9514V24.8424H80.5438V22.8994Z" fill="#484848"/>
<path d="M113.798 57.3424V40.5625H112.726V41.3574H109.329V40.4742H103.965V41.3574H100.3V40.5625H99.4954V42.2405L96.7242 43.9185H90.4667V21.8397H91.3606V16.5408H90.4667V15.6576H78.8455V14.7745H76.0742V15.6576H61.056V10.3587H59.0894V6.73777H63.5591V4H58.1955V10.5353H56.497V15.8342H41.3V14.9511H38.5288V15.8342H28.8742L27.9803 16.7174V22.2813H28.8742V18.6603H29.6788V21.3981H30.5727V18.6603H31.4667V21.3981H32.5394V18.6603H33.1652V21.3981H34.2379V18.6603H34.8636V21.3981H35.9363V18.6603H36.8303V21.3981H37.903V18.6603H38.5288V21.3981H39.6015V18.6603H40.2273V21.3981H41.3V18.6603H42.1939V21.3981H43.2667V18.6603H43.8924V21.3981H44.9651V18.6603H45.5909V21.3981H46.6636V18.6603H47.5576V21.3981H48.6303V18.6603H49.2561V21.3981H50.3288V18.6603H50.9545V21.3981H52.0273V18.6603H52.9212V21.3981H53.9939V18.6603H54.6197V21.3981H55.6924V18.6603H56.3182V21.3981H57.3909V18.6603H58.2848V21.3981H59.3576V18.6603H59.9833V21.3981H61.056V18.6603H61.6818V21.3981H62.7545V18.6603H63.5591V21.3981H64.6318V18.6603H65.2576V21.3981H66.3303V18.6603H66.9561V21.3981H68.0288V18.6603H68.9227V21.3981H69.9954V18.6603H70.6212V21.3981H71.6939V18.6603H72.4091V21.3981H73.4818V18.6603H74.3758V21.3981H75.4485V18.6603H76.0742V21.3981H77.147V18.6603H77.7727V21.3981H78.8455V18.6603H79.65V21.3981H80.7227V18.6603H81.3485V21.3981H82.3318V18.6603H83.047V21.3981H84.1197V18.6603H85.0136V21.3981H86.0863V18.6603H86.7121V21.3981H87.7848V18.6603H88.4106V21.3981H89.4833V18.6603H90.3773V22.0163H89.5727V44.2718H87.6061V42.4171H85.2818V44.2718H84.2091V42.4171H81.6167V44.2718H80.5439V42.4171H77.9515V44.2718H76.8788V42.4171H74.5545V44.2718H73.4818V42.4171H70.8894V44.2718H69.8167V42.4171H67.2242V44.2718H66.1515V42.4171H63.8273V44.2718H62.7545V42.4171H60.1621V44.2718H59.0894V42.4171H56.497V44.2718H55.4242V42.4171H53.1V44.2718H52.0273V42.4171H49.4348V44.2718H48.3621V42.4171H45.7697V44.2718H44.697V42.4171H42.3727V44.2718H41.3V42.4171H38.7076V44.2718H37.6349V42.4171H35.0424V44.2718H33.9697V42.4171H31.6454V44.2718H29.6788V22.1046H28.8742L28.7848 44.2718H23.2424L20.5606 41.534V40.6508H19.7561V41.4457H16.0909V40.6508H10.7273V41.534H7.33029V40.7392H6.25758V57.5191H0V59.1971H118V57.5191L113.798 57.3424ZM30.5727 17.8655H29.5V16.7174H30.5727V17.8655ZM32.45 17.8655H31.3773V16.7174H32.45V17.8655ZM34.2379 17.8655H33.1652V16.7174H34.2379V17.8655ZM35.9363 17.8655H34.8636V16.7174H35.9363V17.8655ZM37.8136 17.8655H36.7409V16.7174H37.8136V17.8655ZM39.6015 17.8655H38.5288V16.7174H39.6015V17.8655ZM41.3 17.8655H40.2273V16.7174H41.3V17.8655ZM43.1773 17.8655H42.1045V16.7174H43.1773V17.8655ZM43.8924 17.8655V16.7174H44.9651V17.8655H43.8924ZM46.6636 17.8655H45.5909V16.7174H46.6636V17.8655ZM48.5409 17.8655H47.4682V16.7174H48.5409V17.8655ZM49.2561 17.8655V16.7174H50.3288V17.8655H49.2561ZM50.9545 17.8655V16.7174H52.0273V17.8655H50.9545ZM53.9045 17.8655H52.8318V16.7174H53.9045V17.8655ZM55.603 17.8655H54.5303V16.7174H55.603V17.8655ZM57.3909 17.8655H56.3182V16.7174H57.3909V17.8655ZM59.2682 17.8655H58.1955V16.7174H59.2682V17.8655ZM57.3909 15.0394V13.9796H59.9833V15.0394H57.3909ZM60.9666 17.8655H59.8939V16.7174H60.9666V17.8655ZM61.6818 17.8655V16.7174H62.7545V17.8655H61.6818ZM64.6318 17.8655H63.5591V16.7174H64.6318V17.8655ZM66.3303 17.8655H65.2576V16.7174H66.3303V17.8655ZM68.1182 17.8655H67.0455V16.7174H68.1182V17.8655ZM69.9954 17.8655H68.9227V16.7174H69.9954V17.8655ZM71.6939 17.8655H70.6212V16.7174H71.6939V17.8655ZM73.4818 17.8655H72.4091V16.7174H73.4818V17.8655ZM75.3591 17.8655H74.2864V16.7174H75.3591V17.8655ZM77.0576 17.8655H75.9848V16.7174H77.0576V17.8655ZM78.8455 17.8655H77.7727V16.7174H78.8455V17.8655ZM80.7227 17.8655H79.65V16.7174H80.7227V17.8655ZM82.4212 17.8655H81.3485V16.7174H82.4212V17.8655ZM84.2091 17.8655H83.1364V16.7174H84.2091V17.8655ZM86.0863 17.8655H85.0136V16.7174H86.0863V17.8655ZM87.7848 17.8655H86.7121V16.7174H87.7848V17.8655ZM89.5727 17.8655H88.5V16.7174H89.5727V17.8655ZM18.147 57.3424V45.0666H17.253V57.3424H15.2864V44.0068H16.0909V43.212H10.7273V44.0951H11.8V57.4307H9.92273V45.1549H9.02879V57.4307H7.41969V42.4171H19.8454V57.4307L18.147 57.3424ZM96.6348 57.3424H23.5106V45.0666H96.6348V57.3424ZM111.027 57.3424V45.0666H109.955V57.3424H108.256V44.0068H109.329V43.1237H103.965V44.0068H104.859V57.3424H103.161V45.0666H101.998V57.3424H100.3V42.3288H112.726V57.3424H111.027Z" fill="#484848"/>
</g>
<defs>
<clipPath id="clip0_2158_95634">
<rect width="118" height="64" fill="white"/>
</clipPath>
</defs>
</svg>
