<svg width="420" height="60" viewBox="0 0 420 60" fill="none" xmlns="http://www.w3.org/2000/svg">
	<g clip-path="url(#clip0_7720_47853)">
		<path d="M30.5 39.6H61L45.8 19.8L30.5 39.6Z" fill="#0064E6" />
		<path d="M45.8 19.8H76.2H76.3001L61 0L45.8 19.8Z" fill="#CCCCCC" />
		<path d="M45.7999 19.8H15.3H15.2L30.5 39.6L45.7999 19.8Z" fill="#008AFF" />
		<path d="M76.3001 19.8H45.8L61 39.6L76.3001 19.8Z" fill="#B3B3B3" />
		<path d="M61 0H30.5L45.7 19.8L61 0Z" fill="#E1E1E1" />
		<path d="M30.5 39.6H0L15.2 59.5L30.5 39.6Z" fill="#EB0000" />
		<path d="M0 39.6H30.5L15.3 19.8L0 39.6Z" fill="#FF4A63" />
		<path d="M15.3 59.5H45.7001L45.8 59.4L30.5 39.6L15.3 59.5Z" fill="#BA0000" />
		<path d="M90.6 4.40002L88.4 4.10002C88.4 4.10002 88.3 3.90002 88.3 3.60002C88.3 3.30002 88.4 3.10002 88.4 3.10002C88.4 3.10002 89.6 2.90002 91.9 2.90002C94.2 2.90002 95.4 3.10002 95.4 3.10002C95.4 3.10002 95.5 3.30002 95.5 3.60002C95.5 3.90002 95.4 4.10002 95.4 4.10002L93.2 4.40002V11.7H101.8V4.40002L99.6 4.10002C99.6 4.10002 99.5 3.90002 99.5 3.60002C99.5 3.30002 99.6 3.10002 99.6 3.10002C99.6 3.10002 100.8 2.90002 103.1 2.90002C105.4 2.90002 106.6 3.10002 106.6 3.10002C106.6 3.10002 106.7 3.30002 106.7 3.60002C106.7 3.90002 106.6 4.10002 106.6 4.10002L104.4 4.40002V21.2L106.6 21.5C106.6 21.5 106.7 21.7 106.7 22C106.7 22.3 106.6 22.5 106.6 22.5C106.6 22.5 105.4 22.7 103.1 22.7C100.8 22.7 99.6 22.5 99.6 22.5C99.6 22.5 99.5 22.3 99.5 22C99.5 21.7 99.6 21.5 99.6 21.5L101.8 21.2V13.4H93.2V21.2L95.4 21.5C95.4 21.5 95.5 21.7 95.5 22C95.5 22.3 95.4 22.5 95.4 22.5C95.4 22.5 94.2 22.7 91.9 22.7C89.6 22.7 88.4 22.5 88.4 22.5C88.4 22.5 88.3 22.3 88.3 22C88.3 21.7 88.4 21.5 88.4 21.5L90.6 21.2V4.40002Z" fill="#fff" />
		<path d="M110.7 13C110.7 13 110.4 13.1 110 13.1C109.6 13.1 109.3 13 109.3 13C109.3 13 109.1 11.6 109.1 9.7C109.1 9.7 110.8 8.5 113.9 8.5C118 8.5 119.4 10 119.4 12.8V21.3L121.4 21.6C121.4 21.6 121.5 21.8 121.5 22.1C121.5 22.4 121.4 22.6 121.4 22.6C121.4 22.6 120.4 22.8 118.5 22.8C117.7 22.8 117 22.7 117 22.7V21.3C117 21.3 115.4 22.9 112.3 22.9C109.5 22.9 108.5 21.5 108.5 19.1V18.6C108.5 16.4 109.9 15.2 113.5 14.8L117 14.4V12.8C117 10.9 116.2 10 113.8 10C112.2 10 111.3 10.5 110.9 10.7L110.7 13ZM113.9 16.2C111.7 16.5 110.9 17.2 110.9 18.6V19C110.9 20.5 111.5 21.3 113.2 21.3C116 21.3 117.1 19.7 117.1 19.7V15.8L113.9 16.2Z" fill="#fff" />
		<path d="M125.2 10L123.2 9.7C123.2 9.7 123.1 9.5 123.1 9.2C123.1 8.9 123.2 8.7 123.2 8.7C123.2 8.7 124.2 8.5 126.2 8.5C128.2 8.5 129.2 8.7 129.2 8.7C129.2 8.7 129.3 8.9 129.3 9.2C129.3 9.5 129.2 9.7 129.2 9.7L127.5 10V21.2H134V10L132.4 9.7C132.4 9.7 132.3 9.5 132.3 9.2C132.3 8.9 132.4 8.7 132.4 8.7C132.4 8.7 133.4 8.5 135.4 8.5C137.4 8.5 138.4 8.7 138.4 8.7C138.4 8.7 138.5 8.9 138.5 9.2C138.5 9.5 138.4 9.7 138.4 9.7L136.4 10V21.2H138.5C138.5 21.2 138.6 21.7 138.6 22.5C138.6 25.1 138.4 26.3 138.4 26.3C138.4 26.3 138.1 26.4 137.7 26.4C137.3 26.4 137 26.3 137 26.3L136.6 22.7H130.8C126.2 22.7 123.1 22.5 123.1 22.5C123.1 22.5 123 22.3 123 22C123 21.7 123.1 21.5 123.1 21.5L125.1 21.2V10H125.2Z" fill="#fff" />
		<path d="M142.5 10L140.5 9.7C140.5 9.7 140.4 9.5 140.4 9.2C140.4 8.9 140.5 8.7 140.5 8.7C140.5 8.7 141.5 8.5 143.6 8.5C145.6 8.5 146.6 8.7 146.6 8.7C146.6 8.7 146.7 8.9 146.7 9.2C146.7 9.5 146.6 9.7 146.6 9.7L144.9 10V18.6L151.6 10.2V10L150 9.7C150 9.7 149.9 9.5 149.9 9.2C149.9 8.9 150 8.7 150 8.7C150 8.7 151 8.5 153 8.5C155 8.5 156 8.7 156 8.7C156 8.7 156.1 8.9 156.1 9.2C156.1 9.5 156 9.7 156 9.7L154 10V21.3L156 21.6C156 21.6 156.1 21.8 156.1 22.1C156.1 22.4 156 22.6 156 22.6C156 22.6 155 22.8 152.9 22.8C150.9 22.8 149.9 22.6 149.9 22.6C149.9 22.6 149.8 22.4 149.8 22.1C149.8 21.8 149.9 21.6 149.9 21.6L151.6 21.3V12.7L144.9 21.1V21.4L146.6 21.7C146.6 21.7 146.7 21.9 146.7 22.2C146.7 22.5 146.6 22.7 146.6 22.7C146.6 22.7 145.6 22.9 143.6 22.9C141.5 22.9 140.5 22.7 140.5 22.7C140.5 22.7 140.4 22.5 140.4 22.2C140.4 21.9 140.5 21.7 140.5 21.7L142.5 21.4V10Z" fill="#fff" />
		<path d="M158.4 12.9C158.4 10.1 160 8.5 164.1 8.5C168.3 8.5 169.9 10.1 169.9 12.9V18.4C169.9 21.2 168.3 22.8 164.1 22.8C160 22.8 158.4 21.2 158.4 18.4V12.9ZM160.9 18.4C160.9 20.4 161.7 21.4 164.2 21.4C166.7 21.4 167.5 20.4 167.5 18.4V12.9C167.5 10.9 166.6 9.9 164.2 9.9C161.7 9.9 160.9 10.9 160.9 12.9V18.4Z" fill="#fff" />
		<path d="M174.2 10L172.2 9.7C172.2 9.7 172.1 9.5 172.1 9.2C172.1 8.9 172.2 8.7 172.2 8.7C172.2 8.7 173.2 8.5 175.2 8.5C177.2 8.5 178.2 8.7 178.2 8.7C178.2 8.7 178.3 8.9 178.3 9.2C178.3 9.5 178.2 9.7 178.2 9.7L176.5 10V14.6H182.8V10L181.1 9.7C181.1 9.7 181 9.5 181 9.2C181 8.9 181.1 8.7 181.1 8.7C181.1 8.7 182.1 8.5 184.1 8.5C186.1 8.5 187.1 8.7 187.1 8.7C187.1 8.7 187.2 8.9 187.2 9.2C187.2 9.5 187.1 9.7 187.1 9.7L185.1 10V21.3L187.1 21.6C187.1 21.6 187.2 21.8 187.2 22.1C187.2 22.4 187.1 22.6 187.1 22.6C187.1 22.6 186.1 22.8 184.1 22.8C182.1 22.8 181.1 22.6 181.1 22.6C181.1 22.6 181 22.4 181 22.1C181 21.8 181.1 21.6 181.1 21.6L182.8 21.3V16.2H176.5V21.3L178.2 21.6C178.2 21.6 178.3 21.8 178.3 22.1C178.3 22.4 178.2 22.6 178.2 22.6C178.2 22.6 177.2 22.8 175.2 22.8C173.2 22.8 172.2 22.6 172.2 22.6C172.2 22.6 172.1 22.4 172.1 22.1C172.1 21.8 172.2 21.6 172.2 21.6L174.2 21.3V10Z" fill="#fff" />
		<path d="M191.7 13C191.7 13 191.4 13.1 191 13.1C190.6 13.1 190.3 13 190.3 13C190.3 13 190.1 11.6 190.1 9.7C190.1 9.7 191.8 8.5 194.9 8.5C199 8.5 200.4 10 200.4 12.8V21.3L202.4 21.6C202.4 21.6 202.5 21.8 202.5 22.1C202.5 22.4 202.4 22.6 202.4 22.6C202.4 22.6 201.4 22.8 199.5 22.8C198.7 22.8 198 22.7 198 22.7V21.3C198 21.3 196.4 22.9 193.3 22.9C190.5 22.9 189.5 21.5 189.5 19.1V18.6C189.5 16.4 190.9 15.2 194.5 14.8L198 14.4V12.8C198 10.9 197.2 10 194.8 10C193.2 10 192.3 10.5 191.9 10.7L191.7 13ZM194.9 16.2C192.7 16.5 191.9 17.2 191.9 18.6V19C191.9 20.5 192.5 21.3 194.2 21.3C197 21.3 198.1 19.7 198.1 19.7V15.8L194.9 16.2Z" fill="#fff" />
		<path d="M205.4 9.7C205.4 9.7 205.3 9.5 205.3 9.2C205.3 8.9 205.4 8.7 205.4 8.7C205.4 8.7 208.1 8.5 212 8.5C215.8 8.5 218.4 8.7 218.4 8.7C218.4 8.7 218.5 8.9 218.5 9.2C218.5 9.5 218.4 9.7 218.4 9.7L216.4 10V21.3L218.4 21.6C218.4 21.6 218.5 21.8 218.5 22.1C218.5 22.4 218.4 22.6 218.4 22.6C218.4 22.6 217.3 22.8 215.2 22.8C213.1 22.8 212 22.6 212 22.6C212 22.6 212 22.3 212 22C212 21.7 212.1 21.5 212.1 21.5L214.1 21.2V10.1H209.7L208.9 18.2C208.6 21.1 207.6 22.8 204.1 22.8C204.1 22.8 204 22.5 204 22C204 21.5 204.1 21.3 204.1 21.3C206 21.3 206.5 20.3 206.7 18.2L207.6 10L205.4 9.7Z" fill="#fff" />
		<path d="M222.2 10L220.2 9.7C220.2 9.7 220.1 9.5 220.1 9.2C220.1 8.9 220.2 8.7 220.2 8.7C220.2 8.7 221.3 8.5 223.4 8.5C225.5 8.5 226.6 8.7 226.6 8.7C226.6 8.7 226.7 8.9 226.7 9.2C226.7 9.5 226.6 9.7 226.6 9.7L224.6 10V14.3C224.6 14.3 225.7 14.2 227.4 14.2C231.1 14.2 232.5 15.6 232.5 18.1V18.9C232.5 21.4 231.1 22.8 227.3 22.8C223.1 22.8 220.2 22.5 220.2 22.5C220.2 22.5 220.1 22.3 220.1 22.1C220.1 21.8 220.2 21.6 220.2 21.6L222.2 21.3V10ZM224.6 15.6V21.3H227.3C229.4 21.3 230.1 20.5 230.1 18.9V18C230.1 16.4 229.4 15.6 227.3 15.6H224.6Z" fill="#fff" />
		<path d="M236.9 10L234.9 9.7C234.9 9.7 234.8 9.5 234.8 9.2C234.8 8.9 234.9 8.7 234.9 8.7C234.9 8.7 235.9 8.5 237.9 8.5C239.9 8.5 240.9 8.7 240.9 8.7C240.9 8.7 241 8.9 241 9.2C241 9.5 240.9 9.7 240.9 9.7L239.2 10V14.6H245.5V10L244 9.7C244 9.7 243.9 9.5 243.9 9.2C243.9 8.9 244 8.7 244 8.7C244 8.7 245 8.5 247 8.5C249 8.5 250 8.7 250 8.7C250 8.7 250.1 8.9 250.1 9.2C250.1 9.5 250 9.7 250 9.7L248 10V21.3L250 21.6C250 21.6 250.1 21.8 250.1 22.1C250.1 22.4 250 22.6 250 22.6C250 22.6 249 22.8 247 22.8C245 22.8 244 22.6 244 22.6C244 22.6 243.9 22.4 243.9 22.1C243.9 21.8 244 21.6 244 21.6L245.7 21.3V16.2H239.4V21.3L241.1 21.6C241.1 21.6 241.2 21.8 241.2 22.1C241.2 22.4 241.1 22.6 241.1 22.6C241.1 22.6 240.1 22.8 238.1 22.8C236.1 22.8 235.1 22.6 235.1 22.6C235.1 22.6 235 22.4 235 22.1C235 21.8 235.1 21.6 235.1 21.6L237.1 21.3V10H236.9Z" fill="#fff" />
		<path d="M252.4 12.9C252.4 10.1 254 8.5 258.1 8.5C262.3 8.5 263.9 10.1 263.9 12.9V18.4C263.9 21.2 262.3 22.8 258.1 22.8C254 22.8 252.4 21.2 252.4 18.4V12.9ZM254.8 18.4C254.8 20.4 255.6 21.4 258.1 21.4C260.6 21.4 261.4 20.4 261.4 18.4V12.9C261.4 10.9 260.5 9.9 258.1 9.9C255.6 9.9 254.8 10.9 254.8 12.9V18.4Z" fill="#fff" />
		<path d="M267.7 12.9C267.7 10.1 269.2 8.5 273.4 8.5C277.6 8.5 279 10.1 279 12.9V16.1C279 16.1 277.4 16.3 274.6 16.3H270.2V18.3C270.2 20.3 271.1 21.3 273.9 21.3C276.8 21.3 278.6 20.3 278.6 20.3C278.6 20.3 278.7 20.6 278.7 21.1C278.7 21.6 278.6 21.9 278.6 21.9C278.6 21.9 277 22.9 273.9 22.9C269.5 22.9 267.8 21.3 267.8 18.5V12.9H267.7ZM276.6 14.8V12.9C276.6 10.9 275.8 9.9 273.3 9.9C270.8 9.9 270 10.9 270 12.9V14.8H276.6Z" fill="#fff" />
		<path d="M291.2 13C291.2 13 290.9 13.1 290.5 13.1C290.1 13.1 289.8 13 289.8 13C289.8 13 289.6 11.6 289.6 9.7C289.6 9.7 291.3 8.5 294.4 8.5C298.5 8.5 299.9 10 299.9 12.8V21.3L301.9 21.6C301.9 21.6 302 21.8 302 22.1C302 22.4 301.9 22.6 301.9 22.6C301.9 22.6 300.9 22.8 299 22.8C298.2 22.8 297.5 22.7 297.5 22.7V21.3C297.5 21.3 295.9 22.9 292.8 22.9C290 22.9 289 21.5 289 19.1V18.6C289 16.4 290.4 15.2 294 14.8L297.5 14.4V12.8C297.5 10.9 296.7 10 294.3 10C292.7 10 291.8 10.5 291.4 10.7L291.2 13ZM294.4 16.2C292.2 16.5 291.4 17.2 291.4 18.6V19C291.4 20.5 292 21.3 293.7 21.3C296.5 21.3 297.6 19.7 297.6 19.7V15.8L294.4 16.2Z" fill="#fff" />
		<path d="M308.1 10.1V21.3L310.1 21.6C310.1 21.6 310.2 21.8 310.2 22.1C310.2 22.4 310.1 22.6 310.1 22.6C310.1 22.6 309 22.8 306.9 22.8C304.8 22.8 303.7 22.6 303.7 22.6C303.7 22.6 303.6 22.4 303.6 22.1C303.6 21.8 303.7 21.6 303.7 21.6L305.7 21.3V10L303.7 9.7C303.7 9.7 303.6 9.5 303.6 9.2C303.6 8.9 303.7 8.7 303.7 8.7C303.7 8.7 306.8 8.5 311.4 8.5H314.5C314.5 8.5 314.6 8.9 314.6 9.5C314.6 11.4 314.4 12.2 314.4 12.2C314.4 12.2 314.2 12.3 313.8 12.3C313.5 12.3 313.2 12.2 313.2 12.2L312.8 10H308.1V10.1Z" fill="#fff" />
		<path d="M317.5 12.9C317.5 10.1 319 8.5 323.2 8.5C327.4 8.5 328.8 10.1 328.8 12.9V16.1C328.8 16.1 327.2 16.3 324.4 16.3H320V18.3C320 20.3 320.9 21.3 323.7 21.3C326.6 21.3 328.4 20.3 328.4 20.3C328.4 20.3 328.5 20.6 328.5 21.1C328.5 21.6 328.4 21.9 328.4 21.9C328.4 21.9 326.8 22.9 323.7 22.9C319.3 22.9 317.6 21.3 317.6 18.5V12.9H317.5ZM326.5 14.8V12.9C326.5 10.9 325.7 9.9 323.2 9.9C320.7 9.9 319.9 10.9 319.9 12.9V14.8H326.5Z" fill="#fff" />
		<path d="M333.5 10L331.5 9.7C331.5 9.7 331.4 9.5 331.4 9.2C331.4 8.9 331.5 8.7 331.5 8.7C331.5 8.7 332.5 8.5 334.5 8.5C336.5 8.5 337.5 8.7 337.5 8.7C337.5 8.7 337.6 8.9 337.6 9.2C337.6 9.5 337.5 9.7 337.5 9.7L335.8 10V14.6H342.1V10L340.4 9.7C340.4 9.7 340.3 9.5 340.3 9.2C340.3 8.9 340.4 8.7 340.4 8.7C340.4 8.7 341.4 8.5 343.4 8.5C345.4 8.5 346.4 8.7 346.4 8.7C346.4 8.7 346.5 8.9 346.5 9.2C346.5 9.5 346.4 9.7 346.4 9.7L344.4 10V21.3L346.4 21.6C346.4 21.6 346.5 21.8 346.5 22.1C346.5 22.4 346.4 22.6 346.4 22.6C346.4 22.6 345.4 22.8 343.4 22.8C341.4 22.8 340.4 22.6 340.4 22.6C340.4 22.6 340.3 22.4 340.3 22.1C340.3 21.8 340.4 21.6 340.4 21.6L342.1 21.3V16.2H335.8V21.3L337.5 21.6C337.5 21.6 337.6 21.8 337.6 22.1C337.6 22.4 337.5 22.6 337.5 22.6C337.5 22.6 336.5 22.8 334.5 22.8C332.5 22.8 331.5 22.6 331.5 22.6C331.5 22.6 331.4 22.4 331.4 22.1C331.4 21.8 331.5 21.6 331.5 21.6L333.5 21.3V10Z" fill="#fff" />
		<path d="M356 10.1V21.3L358 21.6C358 21.6 358.1 21.8 358.1 22.1C358.1 22.4 358 22.6 358 22.6C358 22.6 356.9 22.8 354.8 22.8C352.7 22.8 351.6 22.6 351.6 22.6C351.6 22.6 351.5 22.4 351.5 22.1C351.5 21.8 351.6 21.6 351.6 21.6L353.6 21.3V10.1H350.2L349.8 12.3C349.8 12.3 349.6 12.4 349.3 12.4C349 12.4 348.7 12.3 348.7 12.3C348.7 12.3 348.5 11.5 348.5 9.60004C348.5 9.00004 348.6 8.60004 348.6 8.60004H360.9C360.9 8.60004 361 9.00004 361 9.60004C361 11.5 360.8 12.3 360.8 12.3C360.8 12.3 360.6 12.4 360.2 12.4C359.9 12.4 359.6 12.3 359.6 12.3L359.2 10.1H356Z" fill="#fff" />
		<path d="M372.6 10.6C372.2 10.4 371.2 9.90001 369.6 9.90001C367.1 9.90001 366.3 10.9 366.3 12.9V18.4C366.3 20.4 367.1 21.4 369.8 21.4C372.6 21.4 374.3 20.4 374.3 20.4C374.3 20.4 374.5 20.7 374.5 21.2C374.5 21.7 374.3 22 374.3 22C374.3 22 372.8 23 369.8 23C365.5 23 363.9 21.4 363.9 18.6V13.1C363.9 10.3 365.4 8.70001 369.6 8.70001C372.8 8.70001 374.6 9.90001 374.6 9.90001C374.6 11.9 374.4 13.2 374.4 13.2C374.4 13.2 374.1 13.3 373.7 13.3C373.3 13.3 373 13.2 373 13.2L372.6 10.6Z" fill="#fff" />
		<path d="M384.6 10.1V21.3L386.6 21.6C386.6 21.6 386.7 21.8 386.7 22.1C386.7 22.4 386.6 22.6 386.6 22.6C386.6 22.6 385.5 22.8 383.4 22.8C381.3 22.8 380.2 22.6 380.2 22.6C380.2 22.6 380.1 22.4 380.1 22.1C380.1 21.8 380.2 21.6 380.2 21.6L382.2 21.3V10.1H378.8L378.4 12.3C378.4 12.3 378.2 12.4 377.9 12.4C377.6 12.4 377.3 12.3 377.3 12.3C377.3 12.3 377.1 11.5 377.1 9.60004C377.1 9.00004 377.2 8.60004 377.2 8.60004H389.5C389.5 8.60004 389.6 9.00004 389.6 9.60004C389.6 11.5 389.4 12.3 389.4 12.3C389.4 12.3 389.2 12.4 388.8 12.4C388.5 12.4 388.2 12.3 388.2 12.3L387.8 10.1H384.6Z" fill="#fff" />
		<path d="M393.6 10L391.6 9.70002C391.6 9.70002 391.5 9.50002 391.5 9.20002C391.5 8.90002 391.6 8.70002 391.6 8.70002C391.6 8.70002 394.6 8.40002 398.8 8.40002C402.5 8.40002 403.9 9.80003 403.9 12.1V12.5C403.9 13.9 403.3 14.8 402 15.4C403.7 15.9 404.4 17 404.4 18.5V18.9C404.4 21.3 402.8 22.7 398.7 22.7C394.3 22.7 391.5 22.4 391.5 22.4C391.5 22.4 391.4 22.2 391.4 21.9C391.4 21.6 391.5 21.4 391.5 21.4L393.5 21.1V10H393.6ZM398.8 14.7C400.8 14.7 401.5 14 401.5 12.5V12.1C401.5 10.7 400.8 9.90002 398.8 9.90002H396V14.7H398.8ZM395.9 16.2V21.2H398.7C401.1 21.2 401.9 20.4 401.9 18.9V18.5C401.9 17 401.1 16.2 398.7 16.2H395.9Z" fill="#fff" />
		<path d="M408 12.9C408 10.1 409.6 8.5 413.7 8.5C417.9 8.5 419.5 10.1 419.5 12.9V18.4C419.5 21.2 417.9 22.8 413.7 22.8C409.6 22.8 408 21.2 408 18.4V12.9ZM410.4 18.4C410.4 20.4 411.2 21.4 413.7 21.4C416.2 21.4 417 20.4 417 18.4V12.9C417 10.9 416.1 9.9 413.7 9.9C411.2 9.9 410.4 10.9 410.4 12.9V18.4Z" fill="#fff" />
		<path d="M90.1 38.1L88.1 37.8C88.1 37.8 88 37.6 88 37.3C88 37 88.1 36.8 88.1 36.8C88.1 36.8 89.1 36.6 91 36.6C91.8 36.6 92.5 36.7 92.5 36.7V38.1C92.5 38.1 94.1 36.5 97.1 36.5C100.1 36.5 101.3 38.1 101.3 40.9V46.4C101.3 49.2 100 50.8 96.4 50.8C93.5 50.8 92.6 49.7 92.5 49.5V55L94.5 55.3C94.5 55.3 94.6 55.5 94.6 55.8C94.6 56.1 94.5 56.3 94.5 56.3C94.5 56.3 93.4 56.5 91.3 56.5C89.2 56.5 88.1 56.3 88.1 56.3C88.1 56.3 88 56.1 88 55.8C88 55.5 88.1 55.3 88.1 55.3L90.1 55V38.1ZM98.9 41C98.9 39 98.3 38 96.4 38C93.6 38 92.6 39.6 92.6 39.6V46.4C92.6 48.4 93.5 49.4 96.1 49.4C98.3 49.4 99 48.4 99 46.4V41H98.9Z" fill="#fff" />
		<path d="M107 41.1C107 41.1 106.7 41.2 106.3 41.2C105.9 41.2 105.6 41.1 105.6 41.1C105.6 41.1 105.4 39.7 105.4 37.8C105.4 37.8 107.1 36.6 110.2 36.6C114.3 36.6 115.8 38.1 115.8 40.9V49.4L117.8 49.7C117.8 49.7 117.9 49.9 117.9 50.2C117.9 50.5 117.8 50.7 117.8 50.7C117.8 50.7 116.8 50.9 114.9 50.9C114.1 50.9 113.4 50.8 113.4 50.8V49.4C113.4 49.4 111.8 51 108.7 51C105.9 51 104.9 49.6 104.9 47.2V46.7C104.9 44.5 106.3 43.3 109.9 42.9L113.5 42.5V40.9C113.5 39 112.7 38.1 110.3 38.1C108.7 38.1 107.8 38.6 107.4 38.8L107 41.1ZM110.3 44.3C108.1 44.6 107.3 45.3 107.3 46.7V47.1C107.3 48.6 107.9 49.4 109.6 49.4C112.4 49.4 113.5 47.8 113.5 47.8V43.9L110.3 44.3Z" fill="#fff" />
		<path d="M121.9 41C121.9 41 121.6 41.1 121.2 41.1C120.8 41.1 120.5 41 120.5 41C120.5 41 120.3 39.6 120.3 37.7C120.3 37.7 121.9 36.6 125.1 36.6C128.8 36.6 130.2 38 130.2 40.3V40.7C130.2 42.1 129.6 43.2 128.3 43.7C130 44.1 130.7 45.2 130.7 46.7V47.2C130.7 49.6 129.1 51 124.8 51C121.9 51 120.3 50 120.3 50C120.3 50 120.1 49.7 120.1 49.2C120.1 48.7 120.3 48.5 120.3 48.4C120.3 48.4 122 49.4 124.8 49.4C127.4 49.4 128.3 48.6 128.3 47.1V46.6C128.3 45.2 127.5 44.3 125.1 44.3H123.3C123.3 44.3 123.2 44 123.2 43.6C123.2 43.1 123.3 42.9 123.3 42.9H125.1C127.2 42.9 127.9 42.1 127.9 40.6V40.2C127.9 38.8 127.2 38 125.2 38C123.6 38 122.7 38.5 122.3 38.7L121.9 41Z" fill="#fff" />
		<path d="M135 38.1L133 37.8C133 37.8 132.9 37.6 132.9 37.3C132.9 37 133 36.8 133 36.8C133 36.8 136 36.5 140.3 36.5C144 36.5 145.5 37.9 145.5 40.2V40.6C145.5 42 144.9 42.9 143.6 43.5C145.3 44 146.1 45.1 146.1 46.6V47C146.1 49.4 144.5 50.8 140.4 50.8C136 50.8 133.1 50.5 133.1 50.5C133.1 50.5 133 50.3 133 50C133 49.7 133.1 49.5 133.1 49.5L135.1 49.2V38.1H135ZM140.2 42.8C142.2 42.8 142.9 42.1 142.9 40.6V40.2C142.9 38.8 142.2 38 140.2 38H137.3V42.8H140.2ZM137.4 44.4V49.4H140.3C142.7 49.4 143.5 48.6 143.5 47.1V46.7C143.5 45.2 142.7 44.4 140.3 44.4H137.4Z" fill="#fff" />
		<path d="M150.2 38.1L148.2 37.8C148.2 37.8 148.1 37.6 148.1 37.3C148.1 37 148.2 36.8 148.2 36.8C148.2 36.8 149.2 36.6 151.3 36.6C153.3 36.6 154.3 36.8 154.3 36.8C154.3 36.8 154.4 37 154.4 37.3C154.4 37.6 154.3 37.8 154.3 37.8L152.6 38.1V46.7L159.3 38.3V38L157.6 37.7C157.6 37.7 157.5 37.5 157.5 37.2C157.5 36.9 157.6 36.7 157.6 36.7C157.6 36.7 158.6 36.5 160.6 36.5C162.6 36.5 163.6 36.7 163.6 36.7C163.6 36.7 163.7 36.9 163.7 37.2C163.7 37.5 163.6 37.7 163.6 37.7L161.6 38V49.3L163.6 49.6C163.6 49.6 163.7 49.8 163.7 50.1C163.7 50.4 163.6 50.6 163.6 50.6C163.6 50.6 162.6 50.8 160.5 50.8C158.5 50.8 157.5 50.6 157.5 50.6C157.5 50.6 157.4 50.4 157.4 50.1C157.4 49.8 157.5 49.6 157.5 49.6L159.2 49.3V40.7L152.5 49.1V49.4L154.2 49.7C154.2 49.7 154.3 49.9 154.3 50.2C154.3 50.5 154.2 50.7 154.2 50.7C154.2 50.7 153.2 50.9 151.2 50.9C149.1 50.9 148.1 50.7 148.1 50.7C148.1 50.7 148 50.5 148 50.2C148 49.9 148.1 49.7 148.1 49.7L150.1 49.4V38.1H150.2Z" fill="#fff" />
		<path d="M173.3 38.2V49.4L175.3 49.7C175.3 49.7 175.4 49.9 175.4 50.2C175.4 50.5 175.3 50.7 175.3 50.7C175.3 50.7 174.2 50.9 172.1 50.9C170 50.9 168.9 50.7 168.9 50.7C168.9 50.7 168.8 50.5 168.8 50.2C168.8 49.9 168.9 49.7 168.9 49.7L170.9 49.4V38.2H167.5L167.1 40.4C167.1 40.4 166.9 40.5 166.6 40.5C166.3 40.5 166 40.4 166 40.4C166 40.4 165.8 39.6 165.8 37.7C165.8 37.1 165.9 36.7 165.9 36.7H178.3C178.3 36.7 178.4 37.1 178.4 37.7C178.4 39.6 178.2 40.4 178.2 40.4C178.2 40.4 178 40.5 177.6 40.5C177.3 40.5 177 40.4 177 40.4L176.6 38.2H173.3Z" fill="#fff" />
		<path d="M182.4 38.1L180.4 37.8C180.4 37.8 180.3 37.6 180.3 37.3C180.3 37 180.4 36.8 180.4 36.8C180.4 36.8 181.4 36.6 183.5 36.6C185.5 36.6 186.5 36.8 186.5 36.8C186.5 36.8 186.6 37 186.6 37.3C186.6 37.6 186.5 37.8 186.5 37.8L184.8 38.1V46.7L191.5 38.3V38L189.8 37.7C189.8 37.7 189.7 37.5 189.7 37.2C189.7 36.9 189.8 36.7 189.8 36.7C189.8 36.7 190.8 36.5 192.8 36.5C194.8 36.5 195.8 36.7 195.8 36.7C195.8 36.7 195.9 36.9 195.9 37.2C195.9 37.5 195.8 37.7 195.8 37.7L193.8 38V49.3L195.8 49.6C195.8 49.6 195.9 49.8 195.9 50.1C195.9 50.4 195.8 50.6 195.8 50.6C195.8 50.6 194.8 50.8 192.7 50.8C190.7 50.8 189.7 50.6 189.7 50.6C189.7 50.6 189.6 50.4 189.6 50.1C189.6 49.8 189.7 49.6 189.7 49.6L191.4 49.3V40.7L184.7 49.1V49.4L186.4 49.7C186.4 49.7 186.5 49.9 186.5 50.2C186.5 50.5 186.4 50.7 186.4 50.7C186.4 50.7 185.4 50.9 183.4 50.9C181.3 50.9 180.3 50.7 180.3 50.7C180.3 50.7 180.2 50.5 180.2 50.2C180.2 49.9 180.3 49.7 180.3 49.7L182.3 49.4V38.1H182.4Z" fill="#fff" />
		<path d="M202.2 44.7C199.7 44.3 198.8 43.2 198.8 41V40.7C198.8 38.1 200.1 36.6 204 36.6C210.2 36.6 211.6 36.6 211.6 37.3C211.6 37.6 211.5 37.8 211.5 37.8L209.5 38.1V49.3L211.5 49.6C211.5 49.6 211.6 49.8 211.6 50.1C211.6 50.4 211.5 50.6 211.5 50.6C211.5 50.6 210.5 50.8 208.4 50.8C206.3 50.8 205.3 50.6 205.3 50.6C205.3 50.6 205.2 50.4 205.2 50.1C205.2 49.8 205.3 49.6 205.3 49.6L207.1 49.3V44.7H204.5L201.6 50.6C201.6 50.6 201 50.7 200.4 50.7C198.9 50.7 198 50.5 198 50.5C198 50.5 197.9 50.3 197.9 50C197.9 49.7 198 49.5 198 49.5L200 49.2L202.2 44.7ZM207 43.3V38.2H204C201.9 38.2 201.2 38.9 201.2 40.5V41C201.2 42.6 201.9 43.3 204 43.3H207Z" fill="#fff" />
		<path d="M222 38.1L220 37.8C220 37.8 219.9 37.6 219.9 37.3C219.9 37 220 36.8 220 36.8C220 36.8 221 36.6 223 36.6C225 36.6 226 36.8 226 36.8C226 36.8 226.1 37 226.1 37.3C226.1 37.6 226 37.8 226 37.8L224.3 38.1V43L226.3 42.5L229.6 38L228.1 37.8C228.1 37.8 228 37.6 228 37.3C228 37 228.1 36.8 228.1 36.8C228.1 36.8 229.2 36.6 231.6 36.6C233 36.6 233.9 36.8 233.9 36.8C233.9 36.8 234 37 234 37.3C234 37.6 233.9 37.8 233.9 37.8L231.9 38.1L228.2 43.3L232.3 49.4L234.3 49.7C234.3 49.7 234.4 49.9 234.4 50.2C234.4 50.5 234.3 50.7 234.3 50.7C234.3 50.7 233.3 50.9 231.9 50.9C231.3 50.9 230.6 50.8 230.6 50.8L226.2 44.2L224.3 44.7V49.5L226.3 49.8C226.3 49.8 226.4 50 226.4 50.3C226.4 50.6 226.3 50.8 226.3 50.8C226.3 50.8 225.2 51 223.1 51C221 51 219.9 50.8 219.9 50.8C219.9 50.8 219.8 50.6 219.8 50.3C219.8 50 219.9 49.8 219.9 49.8L221.9 49.5V38.1H222Z" fill="#fff" />
		<path d="M238.1 38.1L236.1 37.8C236.1 37.8 236 37.6 236 37.3C236 37 236.1 36.8 236.1 36.8C236.1 36.8 239.1 36.5 243.4 36.5C247.1 36.5 248.6 37.9 248.6 40.2V40.6C248.6 42 248 42.9 246.7 43.5C248.4 44 249.2 45.1 249.2 46.6V47C249.2 49.4 247.6 50.8 243.5 50.8C239.1 50.8 236.2 50.5 236.2 50.5C236.2 50.5 236.1 50.3 236.1 50C236.1 49.7 236.2 49.5 236.2 49.5L238.2 49.2V38.1H238.1ZM243.3 42.8C245.3 42.8 246 42.1 246 40.6V40.2C246 38.8 245.3 38 243.3 38H240.4V42.8H243.3ZM240.5 44.4V49.4H243.4C245.8 49.4 246.6 48.6 246.6 47.1V46.7C246.6 45.2 245.8 44.4 243.4 44.4H240.5Z" fill="#fff" />
		<path d="M254.6 41.1C254.6 41.1 254.3 41.2 253.9 41.2C253.5 41.2 253.2 41.1 253.2 41.1C253.2 41.1 253 39.7 253 37.8C253 37.8 254.7 36.6 257.8 36.6C261.9 36.6 263.4 38.1 263.4 40.9V49.4L265.4 49.7C265.4 49.7 265.5 49.9 265.5 50.2C265.5 50.5 265.4 50.7 265.4 50.7C265.4 50.7 264.4 50.9 262.5 50.9C261.7 50.9 261 50.8 261 50.8V49.4C261 49.4 259.4 51 256.3 51C253.5 51 252.5 49.6 252.5 47.2V46.7C252.5 44.5 253.9 43.3 257.5 42.9L261.1 42.5V40.9C261.1 39 260.3 38.1 257.9 38.1C256.3 38.1 255.4 38.6 255 38.8L254.6 41.1ZM257.9 44.3C255.7 44.6 254.9 45.3 254.9 46.7V47.1C254.9 48.6 255.5 49.4 257.2 49.4C260 49.4 261.1 47.8 261.1 47.8V43.9L257.9 44.3Z" fill="#fff" />
		<path d="M268.6 37.8C268.6 37.8 268.5 37.6 268.5 37.3C268.5 37 268.6 36.8 268.6 36.8C268.6 36.8 271.3 36.6 275.2 36.6C279 36.6 281.7 36.8 281.7 36.8C281.7 36.8 281.8 37 281.8 37.3C281.8 37.6 281.7 37.8 281.7 37.8L279.7 38.1V49.4L281.7 49.7C281.7 49.7 281.8 49.9 281.8 50.2C281.8 50.5 281.7 50.7 281.7 50.7C281.7 50.7 280.6 50.9 278.5 50.9C276.4 50.9 275.3 50.7 275.3 50.7C275.3 50.7 275.2 50.5 275.2 50.2C275.2 49.9 275.3 49.7 275.3 49.7L277.3 49.4V38.2H272.8L272 46.3C271.7 49.2 270.7 50.9 267.1 50.9C267.1 50.9 267 50.6 267 50.1C267 49.7 267.1 49.4 267.1 49.4C269 49.4 269.5 48.4 269.7 46.3L270.6 38.1L268.6 37.8Z" fill="#fff" />
		<path d="M285.5 38.1L283.5 37.8C283.5 37.8 283.4 37.6 283.4 37.3C283.4 37 283.5 36.8 283.5 36.8C283.5 36.8 284.5 36.6 286.6 36.6C288.6 36.6 289.6 36.8 289.6 36.8C289.6 36.8 289.7 37 289.7 37.3C289.7 37.6 289.6 37.8 289.6 37.8L287.9 38.1V46.7L294.6 38.3V38L292.9 37.7C292.9 37.7 292.8 37.5 292.8 37.2C292.8 36.9 292.9 36.7 292.9 36.7C292.9 36.7 293.9 36.5 295.9 36.5C297.9 36.5 298.9 36.7 298.9 36.7C298.9 36.7 299 36.9 299 37.2C299 37.5 298.9 37.7 298.9 37.7L296.9 38V49.3L298.9 49.6C298.9 49.6 299 49.8 299 50.1C299 50.4 298.9 50.6 298.9 50.6C298.9 50.6 297.9 50.8 295.8 50.8C293.8 50.8 292.8 50.6 292.8 50.6C292.8 50.6 292.7 50.4 292.7 50.1C292.7 49.8 292.8 49.6 292.8 49.6L294.5 49.3V40.7L287.8 49.1V49.4L289.5 49.7C289.5 49.7 289.6 49.9 289.6 50.2C289.6 50.5 289.5 50.7 289.5 50.7C289.5 50.7 288.5 50.9 286.5 50.9C284.4 50.9 283.4 50.7 283.4 50.7C283.4 50.7 283.3 50.5 283.3 50.2C283.3 49.9 283.4 49.7 283.4 49.7L285.4 49.4V38.1H285.5Z" fill="#fff" />
		<path d="M308.4 50.9C303.5 50.9 301.6 49.2 301.6 46.2V41.3C301.6 38.3 303.5 36.6 308.4 36.6V32.5L306.4 32.2C306.4 32.2 306.3 32 306.3 31.7C306.3 31.4 306.4 31.2 306.4 31.2C306.4 31.2 307.4 31 309.3 31C310.1 31 310.8 31.1 310.8 31.1V36.5C315.7 36.5 317.6 38.2 317.6 41.2V46.1C317.6 49.1 315.7 50.8 310.8 50.8V55L312.8 55.3C312.8 55.3 312.9 55.5 312.9 55.8C312.9 56.1 312.8 56.3 312.8 56.3C312.8 56.3 311.7 56.5 309.6 56.5C307.5 56.5 306.4 56.3 306.4 56.3C306.4 56.3 306.3 56.1 306.3 55.8C306.3 55.5 306.4 55.3 306.4 55.3L308.4 55V50.9ZM308.4 38.1C305.1 38.1 304 39.1 304 41.3V46.2C304 48.4 305.1 49.4 308.4 49.4V38.1ZM310.9 49.4C314.2 49.4 315.3 48.4 315.3 46.2V41.3C315.3 39.1 314.1 38.1 310.9 38.1V49.4Z" fill="#fff" />
		<path d="M322.1 38.1L320.1 37.8C320.1 37.8 320 37.6 320 37.3C320 37 320.1 36.8 320.1 36.8C320.1 36.8 321.1 36.6 323.2 36.6C325.2 36.6 326.2 36.8 326.2 36.8C326.2 36.8 326.3 37 326.3 37.3C326.3 37.6 326.2 37.8 326.2 37.8L324.5 38.1V46.7L331.2 38.3V38L329.5 37.7C329.5 37.7 329.4 37.5 329.4 37.2C329.4 36.9 329.5 36.7 329.5 36.7C329.5 36.7 330.5 36.5 332.5 36.5C334.5 36.5 335.5 36.7 335.5 36.7C335.5 36.7 335.6 36.9 335.6 37.2C335.6 37.5 335.5 37.7 335.5 37.7L333.5 38V49.3L335.5 49.6C335.5 49.6 335.6 49.8 335.6 50.1C335.6 50.4 335.5 50.6 335.5 50.6C335.5 50.6 334.5 50.8 332.4 50.8C330.4 50.8 329.4 50.6 329.4 50.6C329.4 50.6 329.3 50.4 329.3 50.1C329.3 49.8 329.4 49.6 329.4 49.6L331.1 49.3V40.7L324.4 49.1V49.4L326.1 49.7C326.1 49.7 326.2 49.9 326.2 50.2C326.2 50.5 326.1 50.7 326.1 50.7C326.1 50.7 325.1 50.9 323.1 50.9C321 50.9 320 50.7 320 50.7C320 50.7 319.9 50.5 319.9 50.2C319.9 49.9 320 49.7 320 49.7L322 49.4V38.1H322.1Z" fill="#fff" />
		<path d="M339.6 38.1L337.6 37.8C337.6 37.8 337.5 37.6 337.5 37.3C337.5 37 337.6 36.8 337.6 36.8C337.6 36.8 338.6 36.6 340.6 36.6C342.6 36.6 343.6 36.8 343.6 36.8C343.6 36.8 343.7 37 343.7 37.3C343.7 37.6 343.6 37.8 343.6 37.8L341.9 38.1V43L343.9 42.5L347.2 38L345.7 37.8C345.7 37.8 345.6 37.6 345.6 37.3C345.6 37 345.7 36.8 345.7 36.8C345.7 36.8 346.8 36.6 349.2 36.6C350.6 36.6 351.5 36.8 351.5 36.8C351.5 36.8 351.6 37 351.6 37.3C351.6 37.6 351.5 37.8 351.5 37.8L349.5 38.1L345.8 43.3L349.9 49.4L351.9 49.7C351.9 49.7 352 49.9 352 50.2C352 50.5 351.9 50.7 351.9 50.7C351.9 50.7 350.9 50.9 349.5 50.9C348.9 50.9 348.2 50.8 348.2 50.8L343.8 44.2L341.9 44.7V49.5L343.9 49.8C343.9 49.8 344 50 344 50.3C344 50.6 343.9 50.8 343.9 50.8C343.9 50.8 342.8 51 340.7 51C338.6 51 337.5 50.8 337.5 50.8C337.5 50.8 337.4 50.6 337.4 50.3C337.4 50 337.5 49.8 337.5 49.8L339.5 49.5V38.1H339.6Z" fill="#fff" />
		<path d="M356.2 41.1C356.2 41.1 355.9 41.2 355.5 41.2C355.1 41.2 354.8 41.1 354.8 41.1C354.8 41.1 354.6 39.7 354.6 37.8C354.6 37.8 356.3 36.6 359.4 36.6C363.5 36.6 365 38.1 365 40.9V49.4L367 49.7C367 49.7 367.1 49.9 367.1 50.2C367.1 50.5 367 50.7 367 50.7C367 50.7 366 50.9 364.1 50.9C363.3 50.9 362.6 50.8 362.6 50.8V49.4C362.6 49.4 361 51 357.9 51C355.1 51 354.1 49.6 354.1 47.2V46.7C354.1 44.5 355.5 43.3 359.1 42.9L362.7 42.5V40.9C362.7 39 361.9 38.1 359.5 38.1C357.9 38.1 357 38.6 356.6 38.8L356.2 41.1ZM359.4 44.3C357.2 44.6 356.4 45.3 356.4 46.7V47.1C356.4 48.6 357 49.4 358.7 49.4C361.5 49.4 362.6 47.8 362.6 47.8V43.9L359.4 44.3Z" fill="#fff" />
		<path d="M370.9 38.1L368.9 37.8C368.9 37.8 368.8 37.6 368.8 37.3C368.8 37 368.9 36.8 368.9 36.8C368.9 36.8 369.9 36.6 371.9 36.6C373.9 36.6 375 36.8 375 36.8C375 36.8 375.1 37 375.1 37.3C375.1 37.6 375 37.8 375 37.8L373.3 38.1V49.3H379.8V38.1L378.2 37.8C378.2 37.8 378.1 37.6 378.1 37.3C378.1 37 378.2 36.8 378.2 36.8C378.2 36.8 379.2 36.6 381.2 36.6C383.2 36.6 384.3 36.8 384.3 36.8C384.3 36.8 384.4 37 384.4 37.3C384.4 37.6 384.3 37.8 384.3 37.8L382.3 38.1V49.3H384.4C384.4 49.3 384.5 49.8 384.5 50.6C384.5 53.2 384.3 54.4 384.3 54.4C384.3 54.4 384 54.5 383.6 54.5C383.2 54.5 382.9 54.4 382.9 54.4L382.5 50.8H376.7C372 50.8 369 50.6 369 50.6C369 50.6 368.9 50.4 368.9 50.1C368.9 49.8 369 49.6 369 49.6L371 49.3V38.1H370.9Z" fill="#fff" />
		<path d="M388.4 38.1L386.4 37.8C386.4 37.8 386.3 37.6 386.3 37.3C386.3 37 386.4 36.8 386.4 36.8C386.4 36.8 387.4 36.6 389.5 36.6C391.5 36.6 392.5 36.8 392.5 36.8C392.5 36.8 392.6 37 392.6 37.3C392.6 37.6 392.5 37.8 392.5 37.8L390.8 38.1V46.7L397.5 38.3V38L395.8 37.7C395.8 37.7 395.7 37.5 395.7 37.2C395.7 36.9 395.8 36.7 395.8 36.7C395.8 36.7 396.8 36.5 398.8 36.5C400.8 36.5 401.8 36.7 401.8 36.7C401.8 36.7 401.9 36.9 401.9 37.2C401.9 37.5 401.8 37.7 401.8 37.7L399.8 38V49.3L401.8 49.6C401.8 49.6 401.9 49.8 401.9 50.1C401.9 50.4 401.8 50.6 401.8 50.6C401.8 50.6 400.8 50.8 398.7 50.8C396.7 50.8 395.7 50.6 395.7 50.6C395.7 50.6 395.6 50.4 395.6 50.1C395.6 49.8 395.7 49.6 395.7 49.6L397.4 49.3V40.7L390.7 49.1V49.4L392.4 49.7C392.4 49.7 392.5 49.9 392.5 50.2C392.5 50.5 392.4 50.7 392.4 50.7C392.4 50.7 391.4 50.9 389.4 50.9C387.3 50.9 386.3 50.7 386.3 50.7C386.3 50.7 386.2 50.5 386.2 50.2C386.2 49.9 386.3 49.7 386.3 49.7L388.3 49.4V38.1H388.4Z" fill="#fff" />
		<path d="M405.8 38.1L403.8 37.8C403.8 37.8 403.7 37.6 403.7 37.3C403.7 37 403.8 36.8 403.8 36.8C403.8 36.8 404.8 36.6 406.9 36.6C408.9 36.6 409.9 36.8 409.9 36.8C409.9 36.8 410 37 410 37.3C410 37.6 409.9 37.8 409.9 37.8L408.2 38.1V46.7L414.9 38.3V38L413.2 37.7C413.2 37.7 413.1 37.5 413.1 37.2C413.1 36.9 413.2 36.7 413.2 36.7C413.2 36.7 414.2 36.5 416.2 36.5C418.2 36.5 419.2 36.7 419.2 36.7C419.2 36.7 419.3 36.9 419.3 37.2C419.3 37.5 419.2 37.7 419.2 37.7L417.2 38V49.3L419.2 49.6C419.2 49.6 419.3 49.8 419.3 50.1C419.3 50.4 419.2 50.6 419.2 50.6C419.2 50.6 418.2 50.8 416.1 50.8C414.1 50.8 413.1 50.6 413.1 50.6C413.1 50.6 413 50.4 413 50.1C413 49.8 413.1 49.6 413.1 49.6L414.8 49.3V40.7L408.1 49.1V49.4L409.8 49.7C409.8 49.7 409.9 49.9 409.9 50.2C409.9 50.5 409.8 50.7 409.8 50.7C409.8 50.7 408.8 50.9 406.8 50.9C404.7 50.9 403.7 50.7 403.7 50.7C403.7 50.7 403.6 50.5 403.6 50.2C403.6 49.9 403.7 49.7 403.7 49.7L405.7 49.4V38.1H405.8ZM407.9 31.4V31.1C407.9 31.1 408.3 31 408.7 31C409.1 31 409.5 31.1 409.5 31.1V31.4C409.5 32.6 410 33.2 411.6 33.2C413.2 33.2 413.7 32.7 413.7 31.4V31.1C413.7 31.1 414.1 31 414.5 31C414.9 31 415.3 31.1 415.3 31.1V31.4C415.3 33.3 414.4 34.3 411.5 34.3C408.8 34.3 407.9 33.3 407.9 31.4Z" fill="#fff" />
	</g>
	<defs>
		<clipPath id="clip0_7720_47853">
			<rect width="419.5" height="59.5" fill="white" />
		</clipPath>
	</defs>
</svg>