<svg width="170" height="148" viewBox="0 0 170 148" fill="none" xmlns="http://www.w3.org/2000/svg">
<path fill-rule="evenodd" clip-rule="evenodd" d="M9.52034 86.3523C8.49379 86.9105 7.49737 87.524 6.5353 88.1886L6.53331 88.188C5.60144 88.6557 4.83303 89.3962 4.33222 90.3118C3.83037 91.2263 3.62006 92.272 3.7273 93.3105C3.89077 94.4447 4.37701 95.5092 5.12875 96.3747C5.88063 97.2413 6.86558 97.8715 7.96613 98.1923H7.96717L85.2869 129.699C86.9019 130.579 88.7168 131.026 90.5565 130.999V130.998C94.7965 131.043 97.8711 129.147 100.767 126.937C104.349 124.2 107.918 121.44 111.489 118.678C118.811 113.015 126.14 107.346 133.605 101.866C136.307 99.8839 137.941 97.4618 139.034 94.8047L44.8362 67.4273C44.1939 67.9788 43.4787 68.454 42.7027 68.8369C34.2008 73.1977 25.7598 77.6985 17.3198 82.1987C14.7204 83.5846 12.1212 84.9705 9.52034 86.3523ZM47.9671 62.6097L140.595 89.5307C140.764 88.7463 140.919 87.954 141.068 87.1581C143.904 71.9879 146.666 56.8105 149.426 41.6365C150.559 35.4069 151.693 29.1779 152.831 22.9502C153.622 18.5308 151.622 15.753 147.144 15.1562C130.327 12.8366 113.509 10.5378 96.6919 8.25783C87.7487 7.04048 78.8048 5.87794 69.8511 4.71412C68.2556 4.50673 66.6597 4.2993 65.0635 4.09152C61.6451 3.64382 59.5555 4.79359 58.4945 8.54127C57.4232 12.7101 56.6209 16.9608 55.8187 21.2109C55.7158 21.756 55.6129 22.3012 55.5094 22.8462C54.6237 27.5226 53.7595 32.2029 52.8954 36.8829C51.3866 45.0545 49.878 53.2249 48.2554 61.3709C48.1846 61.7923 48.088 62.2058 47.9671 62.6097ZM142.382 25.6989L132.396 80.409L56.6156 59.1929L65.422 14.53L142.382 25.6989Z" fill="#D4E2F6"/>
</svg>
