<svg width="170" height="148" viewBox="0 0 170 148" fill="none" xmlns="http://www.w3.org/2000/svg">
<path d="M140.054 55.8775C145.524 57.3437 150.094 60.8665 152.935 65.7924C155.777 70.7186 156.534 76.4649 155.075 81.9133C152.716 90.7183 145.032 97.0138 135.962 97.5839C133.674 97.7552 131.354 97.5385 129.06 96.9235L115.32 93.2408C113.103 92.6464 111.046 92.1549 109.043 91.7112L120.114 50.378C122.074 50.9954 124.109 51.6028 126.315 52.194L140.054 55.8775Z" fill="#D4E2F6"/>
<path d="M115.543 98.7104L127.708 101.971C130.174 102.632 132.689 102.905 135.203 102.831L125.994 124.008C123.948 128.218 119.182 130.376 114.67 129.166C114.064 129.004 113.473 128.791 112.902 128.503C108.086 126.103 106.064 120.234 108.372 115.554L115.543 98.7104Z" fill="#D4E2F6"/>
<path d="M47.4623 30.3728L37.0378 69.2907C30.0741 64.1611 26.5678 55.1141 28.9388 46.2625C31.309 37.4137 38.8686 31.3326 47.4623 30.3728Z" fill="#D4E2F6"/>
<path d="M62.6266 0.567946C63.5803 0.337113 64.562 0.70813 65.1941 1.47289C69.7839 7.13724 73.6106 12.2184 76.9976 16.723C88.8727 32.5258 95.7684 41.6191 114.889 48.6214L103.64 90.6175C93.2847 88.7992 84.8883 89.0074 76.1236 91.3071C69.5471 93.0595 63.0815 95.8145 54.8806 99.2951C49.7283 101.483 43.8421 103.989 37.0291 106.624C36.4944 106.805 35.9423 106.846 35.4129 106.705C35.0352 106.603 34.658 106.394 34.3532 106.123C33.6113 105.465 33.3184 104.44 33.5684 103.506L60.6381 2.44301C60.895 1.48399 61.6542 0.768487 62.626 0.568988L62.6266 0.567946Z" fill="#D4E2F6"/>
</svg>
