<svg width="170" height="148" viewBox="0 0 170 148" fill="none" xmlns="http://www.w3.org/2000/svg">
<path fill-rule="evenodd" clip-rule="evenodd" d="M133.039 25.3091L128.995 26.2568L102.297 32.4011L98.2524 33.3488L95.0612 19.5121C94.5715 17.364 95.9143 15.2158 98.047 14.7262L125.092 8.5028C126.135 8.26587 127.194 8.43962 128.11 9.00826C129.01 9.5769 129.642 10.4614 129.879 11.4881L133.039 25.3091ZM90.7012 29.8106V15.6106H90.7006C90.7006 13.415 88.9156 11.6143 86.7197 11.6143H58.9792C56.7675 11.6143 54.9824 13.415 54.9824 15.6106V29.8106H90.7012ZM54.9824 123.636V35.3547H90.7165V123.636C90.7165 125.847 88.9156 127.632 86.7197 127.632H58.9792C56.7675 127.632 54.9824 125.831 54.9824 123.636ZM65.4878 109.483C65.4878 113.527 68.7737 116.828 72.8337 116.828C76.8935 116.828 80.1953 113.527 80.1953 109.483C80.1953 105.424 76.8938 102.122 72.8337 102.122C68.7895 102.122 65.4878 105.423 65.4878 109.483ZM15 55.3359V123.65C15 125.846 16.7851 127.646 18.9968 127.646H46.7373C48.9332 127.646 50.7341 125.861 50.7341 123.65V55.3359H15ZM32.8672 116.828C28.8071 116.828 25.5212 113.527 25.5212 109.483C25.5212 105.423 28.823 102.122 32.8672 102.122C36.9273 102.122 40.2288 105.424 40.2288 109.483C40.2288 113.527 36.927 116.828 32.8672 116.828ZM50.7332 49.7916V35.5915H50.7341C50.7341 33.3802 48.949 31.5953 46.7373 31.5953H18.9968C16.7851 31.5953 15 33.396 15 35.5915V49.7916H50.7332ZM134.287 30.7275L154.097 116.764L154.097 116.764C154.334 117.807 154.16 118.865 153.591 119.781C153.039 120.681 152.154 121.313 151.111 121.55L124.097 127.789C123.797 127.868 123.497 127.9 123.197 127.9C121.38 127.9 119.737 126.652 119.311 124.804L99.5005 38.7672L103.545 37.8195L130.243 31.6752L134.287 30.7275ZM133.513 114.316C134.05 114.316 134.603 114.253 135.156 114.126L135.156 114.127C139.105 113.211 141.585 109.262 140.669 105.313C139.753 101.364 135.803 98.8841 131.854 99.8002C129.943 100.242 128.315 101.411 127.273 103.07C126.23 104.728 125.898 106.703 126.341 108.614C127.13 112.01 130.164 114.316 133.513 114.316Z" fill="#D4E2F6"/>
</svg>
