<svg width="170" height="148" viewBox="0 0 170 148" fill="none" xmlns="http://www.w3.org/2000/svg">
<path fill-rule="evenodd" clip-rule="evenodd" d="M63.351 40.7087C63.351 54.606 52.029 65.9174 38.1188 65.9174C24.2086 65.9174 12.7242 54.606 12.8866 40.7087C12.8866 26.8114 24.2086 15.5 38.1188 15.5C52.029 15.5 63.351 26.8114 63.351 40.7087ZM38.2584 73.34C46.3131 73.34 53.7477 70.5541 59.6338 65.7573V65.7587C61.6466 67.1511 63.5061 68.6978 65.21 70.5544C66.9138 72.2565 68.4632 74.1131 69.857 76.1251C63.9706 84.0165 60.5629 93.9212 60.5629 104.443V114.192H6.50548C2.94323 114.192 0 111.252 0 107.693V97.4797C0 84.3262 6.65982 72.7205 16.883 65.7573C22.7692 70.5552 30.2037 73.34 38.2584 73.34ZM128.272 72.7207C122.386 77.5174 114.951 80.3034 106.742 80.3034C98.6875 80.3034 91.2529 77.5185 85.3667 72.7207C75.1435 79.5296 68.4837 91.2896 68.4837 104.443V114.501C68.4837 118.06 71.4269 121 75.1435 121H138.495C142.057 121 145 118.06 145 114.501V104.287C145 93.7655 140.663 84.1706 133.848 77.2074C132.145 75.6606 130.287 74.1128 128.273 72.7204L128.272 72.7207ZM132.071 47.145C132.071 61.0422 120.748 72.3537 106.838 72.3537C92.9269 72.3537 81.6046 61.0422 81.6046 47.145C81.6046 33.2477 92.9269 21.9363 106.838 21.9363C120.748 21.9363 132.071 33.2477 132.071 47.145Z" fill="#D4E2F6"/>
</svg>
