<svg width="24" height="24" viewBox="0 0 24 24" fill="none" xmlns="http://www.w3.org/2000/svg">
<path fill-rule="evenodd" clip-rule="evenodd" d="M12.6186 1.87988C13.1287 1.87988 13.6178 2.08217 13.9784 2.44224L18.6212 7.07753C18.9818 7.4376 19.1844 7.92596 19.1844 8.43517V13.3999H17.2613L17.2613 8.59988H12.4537V3.79988H5.72288V19.1599H11.4921L13.4152 21.0799H5.72288C4.6608 21.0799 3.7998 20.2203 3.7998 19.1599V3.79988C3.7998 2.7395 4.6608 1.87988 5.72288 1.87988H12.6186ZM16.2998 21.0799L14.3767 19.1599H17.2613V15.3199H19.1844V19.1599H22.069L18.2229 22.9999L16.2998 21.0799ZM13.6281 13.6323C14.6172 13.6704 15.6974 13.9961 15.223 15.0029C14.729 16.0513 13.7379 15.7045 12.994 15.0869C12.5971 14.7574 12.0823 14.5565 11.58 14.6754C11.1413 14.7791 10.795 15.1056 10.5797 15.5011C9.94092 16.6748 8.70635 17.8772 7.89628 16.8524C7.17538 15.9404 8.13544 15.0687 9.20445 14.6014C9.8405 14.3233 10.4342 13.8891 10.7012 13.2491C10.938 12.6814 10.8841 12.0415 10.6604 11.4685C10.1862 10.2539 9.99134 8.76245 11.2376 8.61004C12.5953 8.444 12.4809 10.3493 12.1149 11.7296C12.0096 12.1266 12.0459 12.5535 12.259 12.9048C12.5426 13.372 13.0813 13.6113 13.6281 13.6323Z" fill="#114A9F"/>
</svg>
