<svg width="288" height="71" viewBox="0 0 288 71" fill="none" xmlns="http://www.w3.org/2000/svg">
<path d="M156.914 19.063L151.092 18.3125C151.092 18.3125 150.793 17.8622 150.793 16.9615C150.793 16.211 151.092 15.6106 151.092 15.6106C151.092 15.6106 154.078 15.1603 160.199 15.1603C166.32 15.1603 169.306 15.6106 169.306 15.6106C169.306 15.6106 169.605 16.0609 169.605 16.9615C169.605 17.8622 169.306 18.3125 169.306 18.3125L163.483 19.063V38.4268H186.028V19.063L180.205 18.3125C180.205 18.3125 180.056 17.8622 180.056 16.9615C180.056 16.211 180.205 15.6106 180.205 15.6106C180.205 15.6106 183.34 15.1603 189.312 15.1603C195.284 15.1603 198.42 15.6106 198.42 15.6106C198.42 15.6106 198.569 16.0609 198.569 16.9615C198.569 17.8622 198.42 18.3125 198.42 18.3125L192.597 19.063V63.1944L198.42 63.945C198.42 63.945 198.569 64.3953 198.569 65.2959C198.569 66.0465 198.42 66.6469 198.42 66.6469C198.42 66.6469 195.284 67.0972 189.312 67.0972C183.34 67.0972 180.205 66.6469 180.205 66.6469C180.205 66.6469 180.056 66.1966 180.056 65.2959C180.056 64.3953 180.205 63.945 180.205 63.945L186.028 63.1944V42.6298H163.483V63.1944L169.306 63.945C169.306 63.945 169.605 64.3953 169.605 65.2959C169.605 66.0465 169.306 66.6469 169.306 66.6469C169.306 66.6469 166.32 67.0972 160.199 67.0972C154.227 67.0972 151.092 66.6469 151.092 66.6469C151.092 66.6469 150.793 66.1966 150.793 65.2959C150.793 64.3953 151.092 63.945 151.092 63.945L156.914 63.1944V19.063Z" fill="#143A84"/>
<path d="M232.609 22.3657C232.609 22.3657 228.727 19.0633 221.561 19.0633C213.2 19.0633 210.662 21.6151 210.662 27.1691V54.9388C210.662 60.4928 213.499 63.0446 222.307 63.0446C231.863 63.0446 237.536 59.8924 237.536 59.7423C237.536 59.7423 237.835 60.4928 237.835 61.8438C237.835 63.1947 237.536 63.9452 237.536 63.9452C237.536 63.9452 232.311 67.0975 222.307 67.0975C208.87 67.0975 204.093 62.5943 204.093 54.7887V27.3192C204.093 19.5136 208.87 15.0104 221.561 15.0104C233.505 15.0104 237.984 19.964 237.984 19.964C237.984 25.2177 237.536 29.1205 237.536 29.1205C237.536 29.1205 236.79 29.2706 235.595 29.2706C234.401 29.2706 233.654 29.1205 233.654 29.1205L232.609 22.3657Z" fill="#143A84"/>
<path d="M249.78 19.0633L243.957 18.3128C243.957 18.3128 243.658 17.8625 243.658 16.9618C243.658 16.2113 243.957 15.6109 243.957 15.6109C243.957 15.6109 246.943 15.1606 253.064 15.1606C259.185 15.1606 262.171 15.6109 262.171 15.6109C262.171 15.6109 262.47 16.0612 262.47 16.9618C262.47 17.8625 262.171 18.3128 262.171 18.3128L256.349 19.0633V39.4778L262.022 37.8267L274.115 18.613L269.786 18.1627C269.786 18.1627 269.487 17.7124 269.487 16.8117C269.487 16.0612 269.786 15.4608 269.786 15.4608C269.786 15.4608 272.772 15.0104 279.64 15.0104C283.671 15.0104 286.806 15.4608 286.806 15.4608C286.806 15.4608 286.955 15.9111 286.955 16.8117C286.955 17.7124 286.806 18.1627 286.806 18.1627L280.983 18.9132L267.845 39.9282L281.879 62.8945L287.702 63.645C287.702 63.645 288 64.0954 288 64.996C288 65.7465 287.702 66.347 287.702 66.347C287.702 66.347 284.716 66.7973 280.535 66.7973C273.518 66.7973 270.532 66.347 270.532 66.347C270.532 66.347 270.234 65.8966 270.234 64.996C270.234 64.0954 270.532 63.645 270.532 63.645L275.011 63.1947L262.171 42.1798L256.498 43.6808V62.8945L262.321 63.645C262.321 63.645 262.619 64.0954 262.619 64.996C262.619 65.7465 262.321 66.347 262.321 66.347C262.321 66.347 259.335 66.7973 253.213 66.7973C247.241 66.7973 244.106 66.347 244.106 66.347C244.106 66.347 243.808 65.8966 243.808 64.996C243.808 64.0954 244.106 63.645 244.106 63.645L249.929 62.8945V19.0633H249.78Z" fill="#143A84"/>
<path d="M14.333 35.276L16.7218 44.8829L30.756 37.0773L14.333 35.276Z" fill="#009FE3"/>
<path d="M126.607 21.7655L128.697 18.1629L124.218 0L114.961 4.65331L111.677 13.2094L98.8367 18.313L94.0591 25.8184L90.7745 22.8162L81.07 26.4188L83.1602 19.8141L76.2924 19.3638L68.5288 25.8184L60.4666 24.1672L57.0327 27.4695L56.4355 33.0235L52.5537 25.8184L61.8103 21.4653L61.9596 18.9135L56.2862 18.313L49.4184 22.6661L50.6128 29.4209L30.7559 37.0764L120.635 31.9727L119.739 26.4188L122.874 22.516L124.068 32.7233L132.877 39.9284L135.117 38.2772L126.607 21.7655Z" fill="#D0D0D0"/>
<path d="M38.6695 58.9914V58.8413L30.7566 37.0758L27.9199 51.4861L38.6695 58.9914Z" fill="#B70E0C"/>
<path d="M16.7216 44.8814L9.70451 48.9342L2.3888 43.6805L0 46.3824L1.0451 52.6869L9.40591 50.4353L14.3328 64.3952L16.423 64.6954L17.7667 58.9914H21.4992L22.8429 56.5897L21.9471 52.5368L27.9191 51.4861L30.7558 37.0758L16.7216 44.8814Z" fill="#EA5475"/>
<path d="M14.333 35.2756L30.756 37.0769L22.8431 23.5673L14.333 35.2756Z" fill="#006FB9"/>
<path d="M119.44 45.1816L113.916 46.0823L114.513 37.5262L120.635 32.1223V31.9722L30.7559 37.0759L100.927 57.9407L115.857 62.7441L118.246 58.9915L119.59 64.5454L117.35 68.148L118.544 71L123.621 66.9471L124.367 56.5897L127.204 57.6405L128.697 55.0887L119.44 45.1816Z" fill="#006FB9"/>
<path d="M38.6686 16.2106L22.8428 23.5658L30.7557 37.0754L38.6686 16.2106Z" fill="#E3E3E3"/>
<path d="M50.6128 29.42L44.7901 28.8196L37.773 26.1176L40.759 23.7159L38.6688 16.2106L30.7559 37.0754L50.6128 29.42Z" fill="#B2B2B2"/>
<path d="M30.7559 37.0758L48.3733 55.5389L63.154 69.649L77.0389 69.4989L77.7854 65.446L89.5802 68.5982L98.6875 66.0464L100.927 57.9406L30.7559 37.0758Z" fill="#E30613"/>
<path d="M38.6688 58.8413L42.1027 54.4882L48.3733 55.5389L30.7559 37.0758L38.6688 58.8413Z" fill="#B70E0C"/>
</svg>
